<svg width="54" height="49" viewBox="0 0 54 49" fill="none" xmlns="http://www.w3.org/2000/svg">
<path d="M4.00751 16.4189L6.07278 36.4719M4.50391 40.556C5.61453 40.8548 6.01888 38.809 5.80338 37.7299M4.50391 40.556L2.16564 19.834M4.50391 40.556L4.59354 41.3504M6.61042 37.8187C14.6021 37.549 25.3775 33.8622 31.0345 45.1925M9.66495 33.1174C15.2155 32.9119 20.454 30.7088 25.7373 34.787M9.66495 28.3789C15.2155 28.1734 19.8097 25.4688 25.0931 29.547M16.982 21.5281C20.2656 21.3997 21.8408 20.8412 24.625 22.9903M27.0811 44.3834C32.8279 36.9196 39.7421 40.2468 52.6725 38.9879M29.3266 41.6865C29.3266 35.9313 27.1716 23.4319 27.1716 19.4753C27.5906 18.7559 28.8956 17.2631 30.7634 17.0473M27.0833 19.5642C25.9459 16.8665 21.7316 12.0106 13.9733 14.1688C6.4047 16.2742 5.48479 15.1275 3.69356 14.2353C3.63069 14.204 3.55648 14.2497 3.55153 14.3198C3.51011 14.9073 3.23002 15.9931 2.34306 16.6552C2.31663 16.675 2.30132 16.7067 2.30338 16.7396L2.4767 19.5168C2.47857 19.5467 2.46632 19.5757 2.44362 19.5952L2.16564 19.834M26.3003 47.4721L26.8758 48.2131C26.8939 48.2364 26.9217 48.25 26.9512 48.25M26.3003 47.4721C26.2847 47.452 26.2617 47.4389 26.2365 47.4358L25.3549 47.3277M26.3003 47.4721L52.4057 43.1209M26.9512 48.25H31.1348C31.181 48.25 31.2206 48.2169 31.2288 48.1714L31.382 47.3277M26.9512 48.25L31.382 47.3277M31.382 47.3277C31.3893 47.2877 31.421 47.2566 31.4612 47.2503L52.4057 43.9479C52.4561 43.9399 52.4914 43.8936 52.4858 43.8428L52.4057 43.1209M50.7903 28.3789L53.125 39.5295M48.0239 19.4753C43.5689 22.2023 40.59 17.1918 35.3125 23.3125M47.1875 13.8125C42.7325 16.5395 40.59 11.2543 35.3125 17.375M46 7.875C41.545 10.602 39.4025 6.50431 34.125 12.625M1.48826 19.834H0.970552C0.9137 19.834 0.869427 19.8834 0.87557 19.94L3.54971 44.5776C3.55451 44.6218 3.58903 44.6569 3.63307 44.6623L4.42675 44.7597M1.48826 19.834L4.42675 44.7597M1.48826 19.834H2.16564M4.42675 44.7597L4.98599 44.8283M4.98599 44.8283L24.7241 47.2503M4.98599 44.8283L4.93579 44.3834M52.4057 43.1209L52.3206 42.3544M52.3206 42.3544L25.3549 47.3277M52.3206 42.3544L52.2346 41.5789M25.3549 47.3277L24.7241 47.2503M52.2346 41.5789L52.1485 40.8033C52.1422 40.7464 52.0877 40.7078 52.032 40.7207L29.6969 45.9099C29.691 45.9113 29.6855 45.9131 29.68 45.9155C29.4042 46.0351 28.6746 46.1969 27.8922 45.912L4.59354 41.3504M52.2346 41.5789L28.4981 46.4723M24.7241 47.2503L25.7373 47.0414M4.93579 44.3834L25.7373 47.0414M4.93579 44.3834L4.84781 43.6037M25.7373 47.0414L26.637 46.8559M26.637 46.8559L4.84781 43.6037M26.637 46.8559L27.7351 46.6295M4.84781 43.6037L4.76267 42.8492M4.76267 42.8492L27.7351 46.6295M4.76267 42.8492L4.67185 42.0443M27.7351 46.6295L28.4981 46.4723M28.4981 46.4723L4.67185 42.0443M4.67185 42.0443L4.59354 41.3504M8.7977 18.1868L9.19103 23.3994C9.20982 23.6484 9.4162 23.8419 9.66495 23.8254C10.9329 23.741 13.4608 23.2437 13.5153 20.9464C13.5697 18.6497 11.2641 17.901 9.30433 17.6851C9.01547 17.6533 8.7758 17.8966 8.7977 18.1868ZM51.5016 22.0589C45.7816 25.9302 40.0559 21.3708 33.3103 29.8795C33.2027 30.0152 32.9775 29.9594 32.9595 29.7871L31.0413 11.4509C31.0367 11.4067 31.0488 11.3604 31.0735 11.3234C37.6452 1.46922 44.4682 6.62901 48.9571 0.828729C49.0655 0.688777 49.2985 0.745119 49.3176 0.921154L51.5849 21.8804C51.5924 21.9501 51.5597 22.0197 51.5016 22.0589Z" stroke="#207DF7" stroke-linecap="round"/>
</svg>