<svg width="52" height="52" viewBox="0 0 52 52" fill="none" xmlns="http://www.w3.org/2000/svg">
<path d="M21.2672 47.3362C22.7725 49.4993 26.825 51.7763 30.3855 47.0801M20.5725 45.287C22.2804 46.1977 26.6687 47.4216 30.5592 45.0308M20.0515 43.3231C21.9041 44.3762 26.7556 45.8505 31.3407 43.3231M11.2806 37.2607L13.5385 35.5529M11.2806 30.5152L6.67806 32.6498M6.15702 26.5874C6.57385 26.5874 8.76223 26.0751 9.80432 25.8189M9.80432 21.8912L4.33337 21.2935M10.499 16.4265L6.67806 14.6334M14.1463 12.5841L9.80432 8.48556M17.0989 9.85174L13.1042 3.27701M22.0488 8.05863L21.0936 3.27701M27.7803 7.6317V2.16699M33.338 8.48556L34.9012 5.49705M38.3748 12.5841L42.9773 8.48556M41.9352 17.0242L45.1483 16.0849M41.9352 22.5743L47.6667 21.8912M42.3694 27.0997L45.5825 28.039M40.8063 31.0275L44.2799 32.9914M38.3748 34.9552L40.8063 37.2607M20.1284 41.1993C20.1047 39.2037 20.1298 36.7239 18.315 34.7843C17.2732 33.6707 6.49923 20.0848 20.139 11.4734C27.5197 6.81364 37.6948 13.2671 38.6357 22.0618C38.9829 25.3064 36.5342 30.7882 32.9911 34.6135C32.2567 35.3888 30.9703 37.7219 31.3364 41.1178C31.3796 41.5193 31.1899 41.9187 30.8127 42.0782C28.8266 42.9177 24.8588 43.7397 20.6846 42.024C20.3471 41.8853 20.1327 41.5589 20.1284 41.1993ZM21.5183 19.1939C20.2563 23.9302 20.1598 28.4982 20.2202 30.3001C20.2224 30.3648 20.2885 30.4067 20.3503 30.3842L24.7537 28.7806C24.8244 28.7548 24.8969 28.8143 24.8841 28.8873C24.6136 30.4341 24.3437 33.874 25.1621 36.835C25.1881 36.929 25.3229 36.9286 25.348 36.8344C26.0144 34.3291 28.2049 28.5331 32.4325 22.6602C32.4805 22.5934 32.4286 22.5016 32.346 22.5114C30.8024 22.694 27.6978 23.4241 25.8111 25.117C25.7431 25.178 25.6321 25.1257 25.6452 25.0362C25.9387 23.0229 27.0751 18.8199 29.6398 15.8273C29.7028 15.7538 29.6307 15.6426 29.5374 15.6714C27.6634 16.2503 23.9152 17.6033 21.558 19.139C21.5382 19.1519 21.5243 19.1714 21.5183 19.1939Z" stroke="#207DF7" stroke-linecap="round"/>
</svg>