<svg width="54" height="54" viewBox="0 0 54 54" fill="none" xmlns="http://www.w3.org/2000/svg">
<path d="M2.25 39.0196C7.52526 30.1622 10.9454 13.2413 12.1104 5.09434C12.1584 4.75835 12.4586 4.52127 12.805 4.54798C22.2013 5.27263 41.6685 6.21277 49.1061 4.5M14.7166 11.2705C15.1873 11.4237 16.5052 11.7301 18.0113 11.7301M21.3061 12.1897C22.0905 12.3429 23.7536 12.5573 24.1301 12.1897M27.4248 12.1897H30.2489M34.0143 12.1897C34.7987 12.3429 36.4618 12.5573 36.8383 12.1897M40.6037 12.1897H43.4277M48.8789 7.43683C47.7871 16.4249 45.1702 35.6248 43.2652 42.0375C43.1892 42.2931 42.9637 42.4627 42.6914 42.476C33.8706 42.9057 14.9469 43.2997 6.29071 41.5784M51.75 12.2517C51.594 21.8098 50.8281 42.2199 49.005 49.0149C48.9328 49.2839 48.6851 49.4602 48.4004 49.4641M51.75 12.2517C51.2715 23.7827 49.9316 47.3687 48.4004 49.4641M51.75 12.2517C51.112 24.2246 49.4531 48.4303 47.9218 49.4703M51.75 12.2517C50.9525 24.3742 48.9746 48.7905 47.4433 49.4759M51.75 12.2517C50.793 24.3774 48.4961 48.7993 46.9648 49.4808M51.75 12.2517C50.6335 24.3803 48.0176 48.8071 46.4863 49.4851M51.75 12.2517C50.461 24.3817 47.5519 48.8108 46.2276 49.4872M51.75 12.2517C51.7183 12.4958 51.6859 12.7448 51.6528 12.9984M51.75 12.2517C51.6492 12.942 51.5424 13.6714 51.4304 14.4333M51.75 12.2517C51.3985 14.3825 50.9841 16.8856 50.5379 19.5692M51.75 12.2517L47.7885 34.2748M51.75 12.2517C51.7285 12.4487 51.6957 12.6992 51.6528 12.9984M48.4004 49.4641L47.9218 49.4703M47.9218 49.4703L47.4433 49.4759M47.4433 49.4759L46.9648 49.4808M46.9648 49.4808L46.4863 49.4851M46.4863 49.4851L46.2276 49.4872M46.2276 49.4872L46.0078 49.4888M46.0078 49.4888C46.7582 49.1704 50.0215 25.4988 51.6528 12.9984M46.0078 49.4888L45.712 49.4909M51.6528 12.9984C51.5958 13.395 51.5209 13.8772 51.4304 14.4333M45.712 49.4909C46.2112 49.1858 49.5499 27.2236 51.4304 14.4333M45.712 49.4909L45.3617 49.493M51.4304 14.4333C51.2127 15.7703 50.9045 17.5352 50.5379 19.5692M45.3617 49.493C45.5674 49.2272 48.413 32.3506 50.5379 19.5692M45.3617 49.493L45.0507 49.4946M50.5379 19.5692C49.7778 23.7862 48.7664 29.16 47.7885 34.2748M45.0507 49.4946C34.6126 49.546 17.9105 49.2497 12.5115 47.7064M45.0507 49.4946L45.0978 49.233M12.5115 47.7064C21.4752 48.5782 40.5417 50.1041 45.0978 49.233M12.5115 47.7064C34.3319 49.4572 43.3772 49.1773 45.1724 48.8185M12.5115 47.7064C12.3716 47.6211 12.2093 47.5197 12.0329 47.4064M45.0978 49.233L45.1724 48.8185M45.1724 48.8185L45.2494 48.3901M12.0329 47.4064C22.0923 48.1682 42.8186 49.4315 45.2494 48.3901M12.0329 47.4064C11.882 47.3094 11.7208 47.2039 11.5544 47.0924M12.0329 47.4064C32.3221 48.9172 42.6685 48.4836 45.3056 48.0779M45.2494 48.3901L45.3056 48.0779M11.5544 47.0924C36.8202 48.7022 44.6201 48.212 45.3617 47.7657M11.5544 47.0924C33.7577 48.352 43.3871 47.8266 45.4264 47.4064M11.5544 47.0924C11.398 46.9875 11.237 46.8774 11.0759 46.7644M45.3617 47.7657L45.3056 48.0779M45.3617 47.7657L45.4264 47.4064M45.4264 47.4064L45.4587 47.2265M45.4264 47.4064L14.4403 46.8567C14.2921 46.8541 14.2702 47.0641 14.4159 47.0906C14.4223 47.0918 14.4288 47.0924 14.4353 47.0926L41.7011 47.7064M45.4911 47.0466L10.5974 46.4193M45.4911 47.0466L45.5475 46.7329M45.4911 47.0466L45.4587 47.2265M10.5974 46.4193C10.5047 46.3504 10.4136 46.2814 10.3247 46.2125M10.5974 46.4193L45.5475 46.7329M10.5974 46.4193C10.7542 46.5357 10.9151 46.6515 11.0759 46.7644M10.3247 46.2125L45.6039 46.4193M10.3247 46.2125C10.2133 46.1262 10.1056 46.0402 10.0033 45.9555M47.7885 34.2748L45.6039 46.4193M47.7885 34.2748C47.0054 38.3705 46.2439 42.3002 45.6503 45.3369M45.6039 46.4193L45.5475 46.7329M10.0033 45.9555L27.4528 46.0005M10.0033 45.9555C9.91558 45.8828 9.83184 45.8111 9.75323 45.7408M27.4528 46.0005C29.6665 46.0745 31.8773 46.1323 33.9984 46.1654M27.4528 46.0005C25.2608 45.9272 23.066 45.8379 20.9528 45.7408M33.9984 46.1654C36.864 46.2101 39.5657 46.2096 41.8892 46.1433M33.9984 46.1654C24.8004 45.879 13.2379 44.813 11.2934 44.4027C8.72497 43.8608 8.80217 44.6285 9.16183 45.0801M33.9984 46.1654C37.0278 46.2597 39.8008 46.2694 41.8892 46.1433M41.8892 46.1433C43.0401 46.1104 44.0983 46.0614 45.0376 45.9936C45.3292 45.9726 45.5672 45.7617 45.6221 45.4813L45.6503 45.3369M41.8892 46.1433C43.9292 46.0201 45.3159 45.7672 45.6503 45.3369M20.9528 45.7408H9.75323M20.9528 45.7408C18.1765 45.6134 15.541 45.4725 13.2375 45.3369M9.75323 45.7408C9.61015 45.613 9.48406 45.4902 9.3817 45.376M9.3817 45.376C9.28571 45.2689 9.21058 45.1693 9.16183 45.0801M9.3817 45.376L13.2375 45.3369M9.16183 45.0801C10.3387 45.1598 11.7156 45.2472 13.2375 45.3369M11.0759 46.7644L45.4587 47.2265" stroke="#207DF7" stroke-linecap="round"/>
</svg>