<svg width="50" height="50" viewBox="0 0 68 68" fill="none" xmlns="http://www.w3.org/2000/svg">
<path d="M19.8426 51.7637L20.4777 49.6121L19.3392 50.073M19.8426 51.7637L19.6741 52.3345C19.796 52.4057 19.9325 52.4864 20.084 52.5741M19.8426 51.7637L19.3392 50.073M19.8426 51.7637L19.8741 51.8694M61.0694 54.6329L61.0589 54.727C57.3746 55.3693 53.8302 55.645 50.6492 55.7002M61.0694 54.6329L61.2999 52.582C61.3469 52.5579 61.7764 52.4747 62.3334 52.4439M61.0694 54.6329L61.7021 12.9005M61.0694 54.6329L61.0618 55.1386C61.0603 55.2324 60.9934 55.3093 60.9023 55.3161C58.4033 55.5025 54.5671 55.6917 50.6492 55.7002M53.7468 22.387C54.0147 23.487 53.9076 25.6044 51.3361 25.2744C48.7646 24.9445 49.8896 20.3246 52.22 20.9021M42.8178 15.2109C46.809 15.6234 55.8199 16.0854 59.9342 14.6334M61.0593 11.333C52.7072 11.8527 43.7219 11.8289 40.0951 11.7494C39.9985 11.7472 39.9221 11.8251 39.9185 11.9243L38.4031 54.5026C38.4002 54.5859 38.4495 54.6596 38.5277 54.6817C39.0321 54.8242 39.5994 54.9488 40.2178 55.0572M43.9167 50.9091C46.9971 50.9366 53.833 50.8596 56.533 50.3316M19.8741 51.8694C21.3966 46.107 28.4775 23.5075 31.8079 12.9832L39.5224 15.7056M19.8741 51.8694C19.8292 52.0394 19.7891 52.1947 19.7541 52.3346C19.8494 52.3871 19.952 52.4418 20.0614 52.4983M19.8741 51.8694L20.0614 52.4983M20.0614 52.4983C22.0737 53.5382 26.3845 55.188 29.799 54.5621L39.2009 19.748M20.0614 52.4983L20.084 52.5741M26.5875 25.5215L22.4758 22.1764C22.4473 22.1533 22.4143 22.1406 22.3808 22.1378M4.2478 48.7033L22.2211 22.2148C22.2312 22.1999 22.2431 22.1871 22.2563 22.1764M22.3808 22.1378C22.3366 22.134 22.2918 22.1474 22.2563 22.1764M22.3808 22.1378L22.2563 22.1764M22.3808 22.1378L29.5584 19.9124M3.52267 50.0241L9.17132 54.1896M9.17132 54.1896L9.22814 54.2315L9.28371 54.1441M9.17132 54.1896L9.06677 54.232M9.17132 54.1896L9.28371 54.1441M9.28371 54.1441L26.9071 26.4298M9.28371 54.1441L9.92908 53.8828M62.3334 52.4439L62.0484 55.7678M62.3334 52.4439C62.5823 52.4301 62.8566 52.4268 63.1336 52.4439M62.0484 55.7678C62.3112 55.7271 62.5581 55.6847 62.7885 55.6407M62.0484 55.7678C57.9064 56.4095 49.8241 56.6455 40.3277 56.665M63.75 52.5206L63.6303 55.453M63.75 52.5206C63.5494 52.4808 63.3408 52.4566 63.1336 52.4439M63.75 52.5206C64.0391 52.5779 64.3114 52.6675 64.5386 52.8019M63.6303 55.453C63.3809 55.5187 63.0998 55.5813 62.7885 55.6407M63.6303 55.453C63.9134 55.3784 64.1557 55.2997 64.3547 55.2167M62.7885 55.6407L63.1336 52.4439M64.5386 52.8019C65.0861 53.1257 65.3715 53.7094 64.9964 54.727C64.9309 54.9047 64.7125 55.0676 64.3547 55.2167M64.5386 52.8019L64.3547 55.2167M3.61014 53.0454C2.5374 54.164 2.24678 55.4194 4.91708 55.9592M3.61014 53.0454C3.79591 53.9413 4.31738 55.7784 4.91708 55.9592M3.61014 53.0454C3.90624 52.7367 4.26193 52.4384 4.63139 52.1684M4.91708 55.9592C5.21199 56.0188 5.543 56.0697 5.91306 56.1107M5.37027 51.6745C5.12681 51.8232 4.87608 51.9896 4.63139 52.1684M5.37027 51.6745L6.80204 56.1852M5.37027 51.6745L6.73313 52.6174M4.63139 52.1684L5.91306 56.1107M5.91306 56.1107C6.18751 56.1411 6.48344 56.1661 6.80204 56.1852M6.80204 56.1852L7.75937 56.2081M6.73313 52.6174L7.75937 56.2081M6.73313 52.6174L7.89995 53.4247M7.75937 56.2081L8.71798 56.2306M7.89995 53.4247L9.06677 54.232M7.89995 53.4247L8.71798 56.2306M9.06677 54.232L9.51814 56.2492M8.71798 56.2306L9.51814 56.2492M9.51814 56.2492L10.5224 56.2723M10.5224 56.2723L9.92908 53.8828M10.5224 56.2723L11.8782 56.3027M9.91671 53.833L9.92908 53.8828M9.92908 53.8828L11.0607 53.4247M11.0607 53.4247L11.8782 56.3027M11.0607 53.4247L11.9793 53.0528M11.8782 56.3027L12.985 56.3271M11.9793 53.0528L12.985 56.3271M11.9793 53.0528L12.9116 52.6753M12.985 56.3271L14.1667 56.3525M12.9116 52.6753L14.1667 56.3525M12.9116 52.6753L14.0429 52.2173M14.1667 56.3525L15.4504 56.3794M14.0429 52.2173L15.4504 56.3794M14.0429 52.2173L15.1457 51.7708M15.4504 56.3794L16.8208 56.4072M15.1457 51.7708L16.8208 56.4072M15.1457 51.7708L16.1978 51.3448M16.8208 56.4072L18.1145 56.4325M16.1978 51.3448L18.1145 56.4325M16.1978 51.3448L17.2742 50.9091M18.1145 56.4325L19.2482 56.454M17.2742 50.9091L19.2482 56.454M17.2742 50.9091L18.2006 50.534M19.2482 56.454L20.3485 56.4741M18.2006 50.534L20.3485 56.4741M18.2006 50.534L19.3392 50.073M20.3485 56.4741L21.25 56.49M21.25 56.49L20.084 52.5741M21.25 56.49L22.3093 56.5081M20.084 52.5741C20.4041 52.7595 20.7913 52.9762 21.25 53.2M21.25 53.2L22.3093 56.5081M21.25 53.2C21.6235 53.3821 22.0443 53.569 22.5149 53.7475M22.3093 56.5081L23.3893 56.5257M22.5149 53.7475L23.3893 56.5257M22.5149 53.7475C22.8788 53.8855 23.2724 54.0186 23.6968 54.1406M23.3893 56.5257L24.5239 56.5434M23.6968 54.1406L24.5239 56.5434M23.6968 54.1406C24.103 54.2574 24.5376 54.3641 25.0013 54.4554M24.5239 56.5434L25.6026 56.5593M25.0013 54.4554L25.6026 56.5593M25.0013 54.4554C25.3166 54.5175 25.6454 54.5724 25.988 54.6186M25.6026 56.5593L26.7465 56.5753M25.988 54.6186L26.7465 56.5753M25.988 54.6186C26.321 54.6635 26.667 54.7001 27.0263 54.7269M26.7465 56.5753L27.7633 56.5885M27.0263 54.7269L27.7633 56.5885M27.0263 54.7269C27.3568 54.7516 27.6986 54.7679 28.0519 54.7748M27.7633 56.5885L28.7899 56.601M28.0519 54.7748L28.7899 56.601M28.0519 54.7748C28.4285 54.7821 28.8181 54.7786 29.221 54.7629M28.7899 56.601L29.799 56.6124M29.221 54.7629C29.4368 54.7545 29.6563 54.7426 29.8797 54.7269M29.221 54.7629L29.799 56.6124M29.8797 54.7269L30.3804 54.4554M29.8797 54.7269L30.3804 56.6186M29.799 56.6124L30.3804 56.6186M30.3804 54.4554L31.0573 56.6253M30.3804 54.4554L30.9541 54.1442M31.0573 56.6253L31.6334 56.6307M31.0573 56.6253L30.3804 56.6186M31.5279 53.833L32.3531 56.637M31.5279 53.833L32.2648 53.4333M31.5279 53.833L30.9541 54.1442M32.3531 56.637L33.2361 56.6439M32.3531 56.637L31.6334 56.6307M32.7321 53.1799L33.9016 56.6486M32.7321 53.1799L32.2648 53.4333M32.7321 53.1799L33.52 52.7526M33.9016 56.6486L33.2361 56.6439M33.9016 56.6486L34.9095 56.6547M32.2648 53.4333L33.2361 56.6439M31.6334 56.6307L30.9541 54.1442M33.52 52.7526L34.9095 56.6547M33.52 52.7526L34.4747 52.2348M34.9095 56.6547L36.026 56.66M34.4747 52.2348L36.026 56.66M34.4747 52.2348L35.4167 51.7239M36.026 56.66C36.4721 56.6619 36.916 56.6633 37.3577 56.6644M35.4167 51.7239L37.3577 56.6644M35.4167 51.7239L36.331 51.228M37.3577 56.6644C37.9623 56.6658 38.5626 56.6665 39.1578 56.6663M36.331 51.228L38.25 56.5753L37.4498 50.6212M36.331 51.228L37.4498 50.6212M37.4498 50.6212L38.3977 50.1071V54.7269C38.624 54.7779 38.8779 54.8303 39.1578 54.8831M39.1578 56.6663V54.8831M39.1578 56.6663C39.55 56.6662 39.9401 56.6658 40.3277 56.665M39.1578 54.8831C39.478 54.9435 39.8322 55.0044 40.2182 55.0643M40.2182 55.0643C40.352 55.085 40.4895 55.1056 40.6307 55.1261M40.2182 55.0643L40.2178 55.0572M40.2182 55.0643L40.3277 56.665M40.6307 55.1261C41.5617 55.2608 42.6541 55.3876 43.8803 55.4885M40.6307 55.1261C40.8338 55.1583 41.0418 55.1889 41.2543 55.2179M40.6307 55.1261C40.4907 55.1039 40.353 55.0809 40.2178 55.0572M43.8803 55.4885C45.8339 55.6491 48.1274 55.744 50.6492 55.7002M43.8803 55.4885C45.9926 55.6473 48.3352 55.7052 50.6492 55.7002M43.8803 55.4885C42.9533 55.4188 42.0707 55.3297 41.2543 55.2179M41.2543 55.2179V56.5753" stroke="#207DF7" stroke-linecap="round"/>
</svg>