<svg width="46" height="52" viewBox="0 0 46 52" fill="none" xmlns="http://www.w3.org/2000/svg">
<path d="M35.5224 24.0346C32.143 20.6552 26.664 20.6552 23.2846 24.0346C19.9052 27.4139 19.9052 32.893 23.2846 36.2724C26.664 39.6518 32.143 39.6518 35.5224 36.2724C38.392 33.4029 38.8249 29.0195 36.8213 25.6932M36.3966 35.3983L39.019 38.0207M39.019 38.0207L37.2707 39.769M39.019 38.0207C39.5018 37.5379 40.2845 37.5379 40.7672 38.0207L42.9526 40.206M34.6483 37.1466L37.2707 39.769M37.2707 39.769C36.7879 40.2517 36.7879 41.0345 37.2707 41.5172L41.6414 45.8879C42.1242 46.3707 42.9069 46.3707 43.3897 45.8879L45.1379 44.1397C45.6207 43.6569 45.6207 42.8742 45.1379 42.3914L44.2638 41.5172M35.5224 37.5493C35.7905 37.4541 36.4909 37.1114 36.8375 36.35M35.1778 37.1466C35.4371 37.0337 36.0438 36.6384 36.3966 35.9603M35.9085 38.0207C36.2618 37.8185 37.0288 37.2686 37.2707 36.6871M5.00311 50.75C2.14088 39.1737 -2.20337 16.0063 2.76228 13.8992C2.98793 13.8038 3.23388 13.7414 3.46184 13.6497L22.3368 6.03996M27.25 8.52109L28.625 17M4.66115 16.0752C2.52703 19.9582 5.8436 36.3297 8.52094 47.0918C9.10328 49.4379 11.7466 50.6677 14.0431 49.7032L23.7593 45.125M8.4219 16.3092C9.28761 15.2914 10.1823 11.6976 8.17256 9.86029C7.82636 9.54009 7.39007 9.27393 6.85023 9.08363C3.20581 7.79612 0.880978 12.1703 3.07298 13.6755M8.11623 9.70032C8.42681 7.72793 11.0766 5.66796 14.271 7.37836C17.7034 9.72256 15.979 13.1698 14.4139 14.3725M14.4158 7.20891C15.067 5.65402 17.5225 2.65572 20.762 3.8882C25.1128 6.1815 22.6082 10.6993 20.7873 11.2775M20.7251 3.67356C21.7143 1.94649 24.1824 0.277206 26.5926 1.92828C29.0031 3.57972 28.2384 7.9559 25.789 9.3568M9.31296 24.2681C12.9798 23.2372 21.0025 20.5568 23.7593 18.0825M10.9545 29.6607C13.3533 29.3002 18.0155 27.4177 21.6774 26.0724M11.9396 35.5292C12.9958 35.3741 17.1592 34.1881 20.75 32.75" stroke="#207DF7" stroke-linecap="round"/>
</svg>