<svg width="49" height="50" viewBox="0 0 49 50" fill="none" xmlns="http://www.w3.org/2000/svg">
<path d="M7.06665 33.667L7.06669 32.4287M7.06669 32.4287L7.06725 16.3337M7.06669 32.4287C7.06684 28.3261 11.1849 25.0003 16.2648 25.0003H30.3685C35.4485 25.0003 39.5667 21.6744 39.5667 17.5718V16.3337M7.41821 16.2782C7.76136 16.2291 16.0688 15.1593 15.7228 7.69997C15.691 7.01461 15.6025 6.39116 15.4648 5.82599C15.2925 5.11842 15.0432 4.50222 14.7321 3.97028C12.1816 -0.390679 5.47406 0.912147 2.91989 3.97028C1.91765 5.17128 -0.182851 8.21707 0.840776 12.0243C1.48244 14.4109 3.56421 15.9329 5.73711 16.265C6.29916 16.3509 6.86731 16.3572 7.41821 16.2782ZM39.9182 16.2782C40.2614 16.2291 48.5688 15.1593 48.2228 7.69997C48.191 7.01461 48.1025 6.39116 47.9648 5.82599C47.7925 5.11842 47.5432 4.50222 47.2321 3.97028C44.6816 -0.390679 37.9741 0.912147 35.4199 3.97028C34.4176 5.17128 32.3171 8.21707 33.3408 12.0243C33.9824 14.4109 36.0642 15.9329 38.2371 16.265C38.7992 16.3509 39.3673 16.3572 39.9182 16.2782ZM7.41821 48.7782C7.76136 48.7291 16.0688 47.6593 15.7228 40.2C15.691 39.5146 15.6025 38.8912 15.4648 38.326C15.2925 37.6184 15.0432 37.0022 14.7321 36.4703C12.1816 32.1093 5.47406 33.4121 2.91989 36.4703C1.91765 37.6713 -0.182851 40.7171 0.840776 44.5243C1.48244 46.9109 3.56421 48.4329 5.73711 48.765C6.29916 48.8509 6.86731 48.8572 7.41821 48.7782Z" stroke="#207DF7" stroke-linecap="round"/>
</svg>