<svg width="44" height="38" viewBox="0 0 44 38" fill="none" xmlns="http://www.w3.org/2000/svg">
<g filter="url(#filter0_d_458_1953)">
<path d="M6 5C6 4.44772 6.44772 4 7 4H37C37.5523 4 38 4.44772 38 5V29C38 29.5523 37.5523 30 37 30H7C6.44772 30 6 29.5523 6 29V5Z" fill="white"/>
<path d="M18.2994 23.0212C18.2994 19.4375 15.706 16.5385 12.5 16.5385V16.4671C15.706 16.4671 18.2994 13.5682 18.2994 9.9845H18.3673C18.3673 13.5682 20.9607 16.4671 24.1667 16.4671V16.5385C20.9607 16.5385 18.3673 19.4375 18.3673 23.0212H18.2994Z" fill="#207DF7"/>
<path d="M27.4207 16.5638C27.4207 14.0722 25.6176 12.0567 23.3887 12.0567V12.0071C25.6176 12.0071 27.4207 9.99159 27.4207 7.5H27.468C27.468 9.99159 29.271 12.0071 31.5 12.0071V12.0567C29.271 12.0567 27.468 14.0722 27.468 16.5638H27.4207Z" fill="#7AA7FB"/>
<path d="M27.4207 26.5C27.4207 24.0084 25.6176 21.9929 23.3887 21.9929V21.9432C25.6176 21.9432 27.4207 19.9277 27.4207 17.4362H27.468C27.468 19.9277 29.271 21.9432 31.5 21.9432V21.9929C29.271 21.9929 27.468 24.0084 27.468 26.5H27.4207Z" fill="#BAD7FD"/>
</g>
<defs>
<filter id="filter0_d_458_1953" x="0" y="0" width="44" height="38" filterUnits="userSpaceOnUse" color-interpolation-filters="sRGB">
<feFlood flood-opacity="0" result="BackgroundImageFix"/>
<feColorMatrix in="SourceAlpha" type="matrix" values="0 0 0 0 0 0 0 0 0 0 0 0 0 0 0 0 0 0 127 0" result="hardAlpha"/>
<feOffset dy="2"/>
<feGaussianBlur stdDeviation="3"/>
<feComposite in2="hardAlpha" operator="out"/>
<feColorMatrix type="matrix" values="0 0 0 0 0.5 0 0 0 0 0.589286 0 0 0 0 1 0 0 0 0.1 0"/>
<feBlend mode="normal" in2="BackgroundImageFix" result="effect1_dropShadow_458_1953"/>
<feBlend mode="normal" in="SourceGraphic" in2="effect1_dropShadow_458_1953" result="shape"/>
</filter>
</defs>
</svg>
