<svg width="48" height="44" viewBox="0 0 48 44" fill="none" xmlns="http://www.w3.org/2000/svg">
<g filter="url(#filter0_d_458_1817)">
<g clip-path="url(#clip0_458_1817)">
<path d="M6 5C6 4.44772 6.44772 4 7 4H41C41.5523 4 42 4.44772 42 5V35C42 35.5523 41.5523 36 41 36H7C6.44772 36 6 35.5523 6 35V5Z" fill="white"/>
<path d="M6 5C6 4.44772 6.44772 4 7 4H41C41.5523 4 42 4.44772 42 5V11H6V5Z" fill="#ECF0FC"/>
<circle cx="10.5" cy="7.5" r="1.5" fill="#072D5F"/>
<circle cx="15" cy="7.5" r="1.5" fill="#BAD7FD"/>
<circle cx="19.5" cy="7.5" r="1.5" fill="#CFD1D3" fill-opacity="0.5"/>
<rect x="12.5" y="18" width="10" height="10" rx="5" fill="#F2F2F3"/>
<g clip-path="url(#clip1_458_1817)">
<path d="M15.8335 25.0834C15.8335 24.1629 16.5797 23.4167 17.5002 23.4167C18.4206 23.4167 19.1668 24.1629 19.1668 25.0834H15.8335ZM17.5002 23.2084C16.8095 23.2084 16.2502 22.649 16.2502 21.9584C16.2502 21.2677 16.8095 20.7084 17.5002 20.7084C18.1908 20.7084 18.7502 21.2677 18.7502 21.9584C18.7502 22.649 18.1908 23.2084 17.5002 23.2084Z" fill="#969CA6"/>
</g>
<rect x="25.5" y="18" width="10" height="10" rx="5" fill="#F2F2F3"/>
<g clip-path="url(#clip2_458_1817)">
<path d="M28.8335 25.0834C28.8335 24.1629 29.5797 23.4167 30.5002 23.4167C31.4206 23.4167 32.1668 24.1629 32.1668 25.0834H28.8335ZM30.5002 23.2084C29.8095 23.2084 29.2502 22.649 29.2502 21.9584C29.2502 21.2677 29.8095 20.7084 30.5002 20.7084C31.1908 20.7084 31.7502 21.2677 31.7502 21.9584C31.7502 22.649 31.1908 23.2084 30.5002 23.2084Z" fill="#969CA6"/>
</g>
<rect x="10" y="15" width="28" height="16" rx="0.2" stroke="#BAD7FD" mask="url(#path-6-inside-1_458_1817)"/>
<g filter="url(#filter1_d_458_1817)">
<rect x="9" y="13" width="4" height="4" rx="0.1" fill="#207DF7"/>
</g>
<g filter="url(#filter2_d_458_1817)">
<rect x="9" y="29" width="4" height="4" rx="0.1" fill="#207DF7"/>
</g>
<g filter="url(#filter3_d_458_1817)">
<rect x="35" y="13" width="4" height="4" rx="0.1" fill="#207DF7"/>
</g>
<g filter="url(#filter4_d_458_1817)">
<rect x="35" y="29" width="4" height="4" rx="0.1" fill="#207DF7"/>
</g>
</g>
</g>
<defs>
<filter id="filter0_d_458_1817" x="0" y="0" width="48" height="44" filterUnits="userSpaceOnUse" color-interpolation-filters="sRGB">
<feFlood flood-opacity="0" result="BackgroundImageFix"/>
<feColorMatrix in="SourceAlpha" type="matrix" values="0 0 0 0 0 0 0 0 0 0 0 0 0 0 0 0 0 0 127 0" result="hardAlpha"/>
<feOffset dy="2"/>
<feGaussianBlur stdDeviation="3"/>
<feComposite in2="hardAlpha" operator="out"/>
<feColorMatrix type="matrix" values="0 0 0 0 0.5 0 0 0 0 0.589286 0 0 0 0 1 0 0 0 0.1 0"/>
<feBlend mode="normal" in2="BackgroundImageFix" result="effect1_dropShadow_458_1817"/>
<feBlend mode="normal" in="SourceGraphic" in2="effect1_dropShadow_458_1817" result="shape"/>
</filter>
<filter id="filter1_d_458_1817" x="3" y="9" width="16" height="16" filterUnits="userSpaceOnUse" color-interpolation-filters="sRGB">
<feFlood flood-opacity="0" result="BackgroundImageFix"/>
<feColorMatrix in="SourceAlpha" type="matrix" values="0 0 0 0 0 0 0 0 0 0 0 0 0 0 0 0 0 0 127 0" result="hardAlpha"/>
<feOffset dy="2"/>
<feGaussianBlur stdDeviation="3"/>
<feComposite in2="hardAlpha" operator="out"/>
<feColorMatrix type="matrix" values="0 0 0 0 0.192 0 0 0 0 0.198933 0 0 0 0 0.208 0 0 0 0.1 0"/>
<feBlend mode="normal" in2="BackgroundImageFix" result="effect1_dropShadow_458_1817"/>
<feBlend mode="normal" in="SourceGraphic" in2="effect1_dropShadow_458_1817" result="shape"/>
</filter>
<filter id="filter2_d_458_1817" x="3" y="25" width="16" height="16" filterUnits="userSpaceOnUse" color-interpolation-filters="sRGB">
<feFlood flood-opacity="0" result="BackgroundImageFix"/>
<feColorMatrix in="SourceAlpha" type="matrix" values="0 0 0 0 0 0 0 0 0 0 0 0 0 0 0 0 0 0 127 0" result="hardAlpha"/>
<feOffset dy="2"/>
<feGaussianBlur stdDeviation="3"/>
<feComposite in2="hardAlpha" operator="out"/>
<feColorMatrix type="matrix" values="0 0 0 0 0.192 0 0 0 0 0.198933 0 0 0 0 0.208 0 0 0 0.1 0"/>
<feBlend mode="normal" in2="BackgroundImageFix" result="effect1_dropShadow_458_1817"/>
<feBlend mode="normal" in="SourceGraphic" in2="effect1_dropShadow_458_1817" result="shape"/>
</filter>
<filter id="filter3_d_458_1817" x="29" y="9" width="16" height="16" filterUnits="userSpaceOnUse" color-interpolation-filters="sRGB">
<feFlood flood-opacity="0" result="BackgroundImageFix"/>
<feColorMatrix in="SourceAlpha" type="matrix" values="0 0 0 0 0 0 0 0 0 0 0 0 0 0 0 0 0 0 127 0" result="hardAlpha"/>
<feOffset dy="2"/>
<feGaussianBlur stdDeviation="3"/>
<feComposite in2="hardAlpha" operator="out"/>
<feColorMatrix type="matrix" values="0 0 0 0 0.192 0 0 0 0 0.198933 0 0 0 0 0.208 0 0 0 0.1 0"/>
<feBlend mode="normal" in2="BackgroundImageFix" result="effect1_dropShadow_458_1817"/>
<feBlend mode="normal" in="SourceGraphic" in2="effect1_dropShadow_458_1817" result="shape"/>
</filter>
<filter id="filter4_d_458_1817" x="29" y="25" width="16" height="16" filterUnits="userSpaceOnUse" color-interpolation-filters="sRGB">
<feFlood flood-opacity="0" result="BackgroundImageFix"/>
<feColorMatrix in="SourceAlpha" type="matrix" values="0 0 0 0 0 0 0 0 0 0 0 0 0 0 0 0 0 0 127 0" result="hardAlpha"/>
<feOffset dy="2"/>
<feGaussianBlur stdDeviation="3"/>
<feComposite in2="hardAlpha" operator="out"/>
<feColorMatrix type="matrix" values="0 0 0 0 0.192 0 0 0 0 0.198933 0 0 0 0 0.208 0 0 0 0.1 0"/>
<feBlend mode="normal" in2="BackgroundImageFix" result="effect1_dropShadow_458_1817"/>
<feBlend mode="normal" in="SourceGraphic" in2="effect1_dropShadow_458_1817" result="shape"/>
</filter>
<clipPath id="clip0_458_1817">
<path d="M6 5C6 4.44772 6.44772 4 7 4H41C41.5523 4 42 4.44772 42 5V35C42 35.5523 41.5523 36 41 36H7C6.44772 36 6 35.5523 6 35V5Z" fill="white"/>
</clipPath>
<clipPath id="clip1_458_1817">
<rect width="5" height="5" fill="white" transform="translate(15 20.5)"/>
</clipPath>
<clipPath id="clip2_458_1817">
<rect width="5" height="5" fill="white" transform="translate(28 20.5)"/>
</clipPath>
</defs>
</svg>
