<svg width="20" height="21" viewBox="0 0 20 21" fill="none" xmlns="http://www.w3.org/2000/svg">
<path d="M9.99984 2.16699C14.6022 2.16699 18.3332 5.89795 18.3332 10.5003C18.3332 15.1027 14.6022 18.8337 9.99984 18.8337C5.39746 18.8337 1.6665 15.1027 1.6665 10.5003H3.33317C3.33317 14.1822 6.31794 17.167 9.99984 17.167C13.6818 17.167 16.6665 14.1822 16.6665 10.5003C16.6665 6.81843 13.6818 3.83366 9.99984 3.83366C7.94662 3.83366 6.1102 4.76185 4.88727 6.22152L6.6665 8.00033H1.6665V3.00033L3.7053 5.03906C5.23319 3.27957 7.48659 2.16699 9.99984 2.16699ZM10.8332 6.33366L10.833 10.1545L13.5353 12.8573L12.3568 14.0358L9.16634 10.8445L9.16651 6.33366H10.8332Z" fill="#6E7682"/>
</svg>
