<svg width="14" height="15" viewBox="0 0 14 15" fill="none" xmlns="http://www.w3.org/2000/svg">
<path d="M9.91666 2.24992H12.25C12.5722 2.24992 12.8333 2.51109 12.8333 2.83325V12.1666C12.8333 12.4888 12.5722 12.7499 12.25 12.7499H1.74999C1.42783 12.7499 1.16666 12.4888 1.16666 12.1666V2.83325C1.16666 2.51109 1.42783 2.24992 1.74999 2.24992H4.08332V1.08325H5.24999V2.24992H8.74999V1.08325H9.91666V2.24992ZM2.33332 5.74992V11.5833H11.6667V5.74992H2.33332ZM3.49999 6.91658H4.66666V8.08325H3.49999V6.91658ZM6.41666 6.91658H7.58332V8.08325H6.41666V6.91658ZM9.33332 6.91658H10.5V8.08325H9.33332V6.91658Z" fill="#969CA6"/>
</svg>
