<svg width="59" height="58" viewBox="0 0 59 58" fill="none" xmlns="http://www.w3.org/2000/svg">
<g clip-path="url(#clip0_1029_15025)">
<path d="M29.527 36.1072C27.5105 36.1072 25.7029 34.7713 24.8103 32.6205L24.6725 32.2889L24.5416 31.9705L24.8334 31.7957L25.9991 31.0915L26.3758 30.8647L26.5468 31.2772L26.6846 31.6087C27.2323 32.9277 28.3225 33.7481 29.527 33.7481C30.7315 33.7481 31.8217 32.9285 32.3699 31.6074L32.509 31.2767L32.6786 30.8647L33.0554 31.091L34.2233 31.794L34.515 31.9687L34.3842 32.2889L34.2464 32.6205C33.3515 34.7708 31.5439 36.1072 29.527 36.1072ZM17.6976 36.1072C15.6812 36.1072 13.8736 34.7708 12.9805 32.6205L12.8413 32.2889L12.7105 31.9705L13.0018 31.7957L14.1692 31.0915L14.5464 30.8647L14.7165 31.2772L14.8543 31.6087C15.4016 32.9277 16.491 33.7494 17.6968 33.7494C18.9026 33.7494 19.9932 32.9277 20.5401 31.6074L20.6783 31.2758L20.8493 30.8647L21.2256 31.091L22.3917 31.7948L22.6835 31.9696L22.5526 32.2881L22.4148 32.6197C21.5195 34.7708 19.7141 36.1072 17.6976 36.1072Z" fill="#072D5F" fill-opacity="0.5"/>
<path d="M23.6128 43.0967C23.2678 43.0967 22.9305 43.1992 22.6437 43.3912C22.3568 43.5832 22.1332 43.8561 22.0012 44.1754C21.8692 44.4947 21.8346 44.8461 21.9019 45.1851C21.9692 45.5241 22.1354 45.8354 22.3793 46.0798C22.6233 46.3242 22.9341 46.4907 23.2725 46.5581C23.6108 46.6255 23.9616 46.5909 24.2803 46.4586C24.599 46.3264 24.8715 46.1024 25.0632 45.815C25.2548 45.5276 25.3571 45.1898 25.3571 44.8442C25.3571 44.3807 25.1734 43.9362 24.8462 43.6085C24.5191 43.2808 24.0754 43.0967 23.6128 43.0967" fill="#072D5F" fill-opacity="0.5"/>
<path d="M58.5 19.1131V20.38H53.267V19.3879L56.2542 15.9676H53.3433V14.7007H58.4019V15.6928L55.4151 19.1131H58.5Z" fill="#072D5F" fill-opacity="0.5"/>
<path d="M55.7548 7.66536V9.86588L46.8795 9.86938V8.14592L51.9438 2.20446H47.0068V0.00393185L55.586 0V1.72346L50.5226 7.66754L55.7548 7.66536Z" fill="#072D5F" fill-opacity="0.5"/>
<path d="M43.5857 57.9998H4.28566C3.78952 58.0033 3.29786 57.9057 2.84055 57.7129C2.38325 57.5202 1.96986 57.2362 1.62551 56.8784C1.26706 56.536 0.982312 56.1238 0.788752 55.6671C0.595192 55.2103 0.496913 54.7188 0.499957 54.2226V16.4546C0.496698 15.9585 0.594793 15.467 0.788208 15.0103C0.981623 14.5535 1.26627 14.1413 1.62463 13.7989C1.96887 13.4409 2.38223 13.1568 2.83955 12.9639C3.29688 12.771 3.7886 12.6734 4.28478 12.677H8.07005V9.84476C8.06249 9.22354 8.18176 8.60734 8.42054 8.03398C8.65931 7.46062 9.01255 6.9422 9.45856 6.51055C9.89274 6.06442 10.413 5.71144 10.9876 5.47306C11.5622 5.23468 12.1793 5.11589 12.8012 5.12392H14.6934C15.3151 5.11602 15.9319 5.23487 16.5063 5.47325C17.0807 5.71162 17.6007 6.06454 18.0347 6.51055C18.4812 6.94197 18.835 7.46027 19.0743 8.03364C19.3136 8.60701 19.4334 9.22333 19.4263 9.84476V12.6774H28.4472V9.84476C28.4398 9.2234 28.5593 8.60709 28.7984 8.03371C29.0375 7.46033 29.3911 6.94198 29.8375 6.51055C30.2714 6.06451 30.7913 5.71157 31.3656 5.47319C31.94 5.23481 32.5567 5.11598 33.1784 5.12392H35.0706C35.6924 5.1161 36.3093 5.23499 36.8838 5.47336C37.4584 5.71173 37.9785 6.0646 38.4128 6.51055C38.8587 6.94224 39.2119 7.46067 39.4507 8.03402C39.6894 8.60737 39.8088 9.22355 39.8013 9.84476V12.6774H43.5857C44.5832 12.6896 45.5367 13.091 46.2435 13.7963C46.9502 14.5017 47.3546 15.4553 47.3705 16.4546V54.2222C47.3548 55.2216 46.9505 56.1754 46.2437 56.8807C45.5369 57.5861 44.5833 57.9875 43.5857 57.9994V57.9998ZM4.28566 24.0081V54.2226H43.5857V24.0081H4.28566ZM33.1784 8.90068C33.0529 8.89671 32.9279 8.91819 32.8109 8.96384C32.6939 9.00948 32.5874 9.07835 32.4976 9.16629C32.4096 9.25525 32.3407 9.36127 32.295 9.47786C32.2494 9.59444 32.2279 9.71914 32.2321 9.84432V18.3432C32.228 18.4685 32.2495 18.5932 32.2952 18.7098C32.3408 18.8265 32.4097 18.9326 32.4976 19.0217C32.5874 19.1096 32.6939 19.1785 32.8109 19.2241C32.9279 19.2698 33.0529 19.2913 33.1784 19.2873H35.0706C35.1959 19.2926 35.321 19.2718 35.4379 19.2263C35.5549 19.1808 35.6611 19.1115 35.75 19.0228C35.8389 18.9341 35.9085 18.8279 35.9544 18.711C36.0004 18.594 36.0216 18.4688 36.0169 18.3432V9.84476C36.021 9.71958 35.9996 9.59488 35.9539 9.47829C35.9083 9.36171 35.8393 9.25569 35.7513 9.16673C35.6616 9.07868 35.5551 9.00975 35.4381 8.9641C35.3211 8.91845 35.1961 8.89702 35.0706 8.90111L33.1784 8.90068ZM12.8012 8.90068C12.6757 8.89658 12.5507 8.91801 12.4337 8.96366C12.3167 9.00931 12.2101 9.07824 12.1205 9.16629C12.0324 9.25525 11.9635 9.36127 11.9178 9.47786C11.8722 9.59444 11.8507 9.71914 11.8549 9.84432V18.3432C11.8501 18.4688 11.8714 18.594 11.9173 18.711C11.9632 18.8279 12.0329 18.9341 12.1217 19.0228C12.2106 19.1115 12.3169 19.1808 12.4338 19.2263C12.5508 19.2718 12.6758 19.2926 12.8012 19.2873H14.6934C14.8187 19.2925 14.9437 19.2716 15.0606 19.226C15.1775 19.1804 15.2837 19.1111 15.3725 19.0225C15.4614 18.9338 15.531 18.8277 15.577 18.7108C15.623 18.5939 15.6443 18.4688 15.6397 18.3432V9.84476C15.6438 9.71955 15.6223 9.59483 15.5765 9.47824C15.5308 9.36165 15.4618 9.25565 15.3737 9.16673C15.2841 9.07869 15.1776 9.00977 15.0607 8.96411C14.9438 8.91846 14.8188 8.89703 14.6934 8.90111L12.8012 8.90068Z" fill="#CDD1D5"/>
</g>
<defs>
<clipPath id="clip0_1029_15025">
<rect width="58" height="58" fill="white" transform="translate(0.5)"/>
</clipPath>
</defs>
</svg>
