<svg width="128" height="118" viewBox="0 0 128 118" fill="none" xmlns="http://www.w3.org/2000/svg">
<path d="M109.933 2.34796C142.215 9.82928 162.319 42.0634 154.838 74.3447C149.344 98.0509 130.501 115.19 108.093 119.661C94.2231 137.816 70.5453 147.195 46.8428 141.702C14.5611 134.221 -5.5435 101.987 1.93783 69.7049C7.43093 46.0023 26.2692 28.8644 48.6724 24.3912C62.5462 6.23664 86.2271 -3.14599 109.933 2.34796ZM76.1614 48.4127L61.5486 45.0261L59.8554 52.3323C49.7674 49.9944 39.6942 56.2771 37.3563 66.365C35.1119 76.0496 40.8122 85.7207 50.1971 88.547L51.3891 88.8641L66.0019 92.2506L66.6451 92.462C68.2773 93.166 69.224 94.9574 68.8085 96.7504C68.3928 98.5441 66.7547 99.7358 64.9791 99.6507L64.3087 99.557L35.0831 92.7839L31.6966 107.397L46.3093 110.783L44.616 118.089L59.2289 121.476L60.9222 114.17C71.01 116.508 81.0833 110.225 83.4212 100.137C85.6656 90.4524 79.9647 80.7819 70.5806 77.955L69.3885 77.6379L54.7756 74.2514L54.1325 74.0407C52.5001 73.336 51.5533 71.5453 51.969 69.7515C52.3846 67.9586 54.0227 66.7661 55.7985 66.852L56.4689 66.945L85.6944 73.7181L89.0809 59.1053L74.4682 55.7188L76.1614 48.4127ZM106.547 16.9607C93.5159 13.9407 80.495 16.914 70.3738 24.0789C71.5626 24.2878 72.7486 24.5254 73.9349 24.8004C106.217 32.2817 126.321 64.5158 118.84 96.7971C118.564 97.9858 118.255 99.1582 117.914 100.313C128.805 94.378 137.205 83.9912 140.225 70.9582C145.836 46.7472 130.758 22.5716 106.547 16.9607Z" fill="white" fill-opacity="0.1"/>
</svg>
