<svg width="133" height="112" viewBox="0 0 133 112" fill="none" xmlns="http://www.w3.org/2000/svg">
<path d="M61.7674 57.8573C76.8941 51.0979 83.6776 33.3553 76.9181 18.2283C70.1586 3.10128 52.4158 -3.68178 37.2891 3.07761C22.1621 9.83712 15.3789 27.5796 22.1384 42.7066C28.8979 57.8336 46.6404 64.6168 61.7674 57.8573ZM26.4383 98.2883C35.8927 94.0636 40.1321 82.9744 35.9075 73.5202C31.6828 64.0658 20.5937 59.8263 11.1394 64.051C1.68502 68.2757 -2.55448 79.3648 1.67021 88.8191C5.89486 98.2734 16.984 102.513 26.4383 98.2883ZM124.924 33.7429C129.149 43.1971 124.91 54.2863 115.455 58.511C106.001 62.7356 94.9118 58.4961 90.6871 49.0418C86.4625 39.5875 90.702 28.4984 100.156 24.2737C109.611 20.049 120.7 24.2885 124.924 33.7429ZM64.8272 64.7047C83.7358 56.2554 105.914 64.7345 114.363 83.643L132.722 124.728L64.2476 155.326L45.8889 114.241C37.4396 95.3324 45.9185 73.1541 64.8272 64.7047ZM32.1937 120.36C30.0735 115.615 28.7147 110.724 28.0648 105.822L26.9492 106.442C15.5228 113.109 10.7208 127.457 16.241 139.81L30.0101 170.624L50.5524 161.445L32.1937 120.36ZM166.959 109.428L153.19 78.6146C147.492 65.8639 132.877 59.8879 119.982 64.7487C123.2 68.5026 125.938 72.7782 128.058 77.5228L146.417 118.608L166.959 109.428Z" fill="#5C6C8A" fill-opacity="0.08"/>
</svg>
