<svg width="32" height="37" viewBox="0 0 32 37" fill="none" xmlns="http://www.w3.org/2000/svg">
<path d="M0 0.924904C0 0.414094 0.414204 -0.00139643 0.924801 0.013365C5.18316 0.136475 9.37739 1.1088 13.2602 2.87669C17.4238 4.77244 21.1325 7.53891 24.1363 10.9896C27.1401 14.4402 29.369 18.4948 30.6729 22.88C31.8888 26.9694 32.2738 31.2576 31.8089 35.4923C31.7531 36 31.2845 36.353 30.7786 36.2826C30.2726 36.2122 29.9211 35.7451 29.9759 35.2372C30.4049 31.2646 30.0403 27.2431 28.8998 23.4072C27.6713 19.2755 25.5712 15.4553 22.7411 12.2041C19.9109 8.95292 16.4166 6.34637 12.4937 4.56021C8.85156 2.90191 4.91864 1.98655 0.924793 1.86399C0.414223 1.84833 0 1.43571 0 0.924904Z" fill="#207DF7"/>
</svg>
