<svg width="15" height="15" viewBox="0 0 15 15" fill="none" xmlns="http://www.w3.org/2000/svg">
<path d="M1.95833 6.7879L3.54167 5.20456L7.89583 9.55873L10.6667 6.7879L13.0417 9.1629V1.95833H1.95833V6.7879ZM1.16667 0.375H13.8333C14.2706 0.375 14.625 0.729445 14.625 1.16667V13.8333C14.625 14.2706 14.2706 14.625 13.8333 14.625H1.16667C0.729445 14.625 0.375 14.2706 0.375 13.8333V1.16667C0.375 0.729445 0.729445 0.375 1.16667 0.375ZM10.2708 5.91667C9.61502 5.91667 9.08333 5.38501 9.08333 4.72917C9.08333 4.07333 9.61502 3.54167 10.2708 3.54167C10.9267 3.54167 11.4583 4.07333 11.4583 4.72917C11.4583 5.38501 10.9267 5.91667 10.2708 5.91667Z" fill="#969CA6"/>
</svg>
