<svg width="14" height="15" viewBox="0 0 14 15" fill="none" xmlns="http://www.w3.org/2000/svg">
<path d="M9.20501 1.66675H4.79501C2.59001 1.66675 2.04167 2.25591 2.04167 4.60675V11.1751C2.04167 12.7267 2.89334 13.0942 3.92584 11.9859L3.93167 11.9801C4.41001 11.4726 5.13917 11.5134 5.55334 12.0676L6.14251 12.8551C6.61501 13.4792 7.37917 13.4792 7.85167 12.8551L8.44084 12.0676C8.86084 11.5076 9.59001 11.4667 10.0683 11.9801C11.1067 13.0884 11.9525 12.7209 11.9525 11.1692V4.60675C11.9583 2.25591 11.41 1.66675 9.20501 1.66675ZM8.75001 7.35425H5.25001C5.01084 7.35425 4.81251 7.15591 4.81251 6.91675C4.81251 6.67758 5.01084 6.47925 5.25001 6.47925H8.75001C8.98917 6.47925 9.18751 6.67758 9.18751 6.91675C9.18751 7.15591 8.98917 7.35425 8.75001 7.35425ZM9.33334 5.02091H4.66667C4.42751 5.02091 4.22917 4.82258 4.22917 4.58341C4.22917 4.34425 4.42751 4.14591 4.66667 4.14591H9.33334C9.57251 4.14591 9.77084 4.34425 9.77084 4.58341C9.77084 4.82258 9.57251 5.02091 9.33334 5.02091Z" fill="#969CA6"/>
</svg>
