<svg width="16" height="17" viewBox="0 0 16 17" fill="none" xmlns="http://www.w3.org/2000/svg">
<path d="M8 3.6001C4.81333 3.6001 2.22 6.19343 2.22 9.3801C2.22 12.5668 4.81333 15.1668 8 15.1668C11.1867 15.1668 13.78 12.5734 13.78 9.38676C13.78 6.2001 11.1867 3.6001 8 3.6001ZM8.5 9.16676C8.5 9.4401 8.27333 9.66676 8 9.66676C7.72667 9.66676 7.5 9.4401 7.5 9.16676V5.83343C7.5 5.5601 7.72667 5.33343 8 5.33343C8.27333 5.33343 8.5 5.5601 8.5 5.83343V9.16676Z" fill="#207DF7"/>
<path d="M9.92666 2.79992H6.07332C5.80666 2.79992 5.59332 2.58659 5.59332 2.31992C5.59332 2.05325 5.80666 1.83325 6.07332 1.83325H9.92666C10.1933 1.83325 10.4067 2.04659 10.4067 2.31325C10.4067 2.57992 10.1933 2.79992 9.92666 2.79992Z" fill="#207DF7"/>
</svg>
