<svg width="16" height="16" viewBox="0 0 16 16" fill="none" xmlns="http://www.w3.org/2000/svg">
<path d="M11.3334 6.13341L14.8089 3.70055C14.9597 3.59498 15.1676 3.63166 15.2731 3.78248C15.3123 3.83851 15.3334 3.90524 15.3334 3.97363V12.0265C15.3334 12.2106 15.1841 12.3599 15.0001 12.3599C14.9317 12.3599 14.8649 12.3388 14.8089 12.2996L11.3334 9.86675V12.6667C11.3334 13.0349 11.0349 13.3334 10.6667 13.3334H1.33341C0.965228 13.3334 0.666748 13.0349 0.666748 12.6667V3.33341C0.666748 2.96523 0.965228 2.66675 1.33341 2.66675H10.6667C11.0349 2.66675 11.3334 2.96523 11.3334 3.33341V6.13341ZM3.33341 5.33341V6.66675H4.66675V5.33341H3.33341Z" fill="#FB8441"/>
</svg>
