<svg width="14" height="15" viewBox="0 0 14 15" fill="none" xmlns="http://www.w3.org/2000/svg">
<g filter="url(#filter0_ii_454_5871)">
<path fill-rule="evenodd" clip-rule="evenodd" d="M3.20824 1.6665C2.69277 1.6665 2.2749 2.08437 2.2749 2.59984V12.3998C2.2749 12.9153 2.69277 13.3332 3.20823 13.3332H10.7916C11.307 13.3332 11.7249 12.9153 11.7249 12.3998V4.58324L8.80833 1.66667H10.8092C10.8033 1.66656 10.7975 1.6665 10.7916 1.6665H3.20824Z" fill="#969CA6"/>
</g>
<path d="M8.89474 9.52362C8.50106 9.49438 8.12204 9.34818 7.81586 9.08503C7.21809 9.21657 6.64942 9.40659 6.08081 9.64058C5.62887 10.4446 5.20603 10.854 4.84152 10.854C4.7686 10.854 4.68118 10.8394 4.62284 10.7955C4.46243 10.7224 4.375 10.5616 4.375 10.4008C4.375 10.2692 4.40417 9.90373 5.78922 9.30429C6.11005 8.71949 6.35782 8.12012 6.56199 7.4915C6.38699 7.14063 6.00797 6.27803 6.27032 5.83951C6.35782 5.67865 6.53282 5.59093 6.72241 5.60559C6.86817 5.60559 7.01393 5.67865 7.10143 5.79561C7.29101 6.05877 7.27643 6.61432 7.02851 7.43303C7.26184 7.87099 7.56746 8.26641 7.93246 8.60261C8.23871 8.54406 8.54481 8.50023 8.85099 8.50023C9.53626 8.51482 9.63834 8.83645 9.62376 9.02655C9.62376 9.52362 9.14258 9.52362 8.89474 9.52362ZM4.81243 10.43L4.85618 10.4154C5.06027 10.3423 5.22061 10.1961 5.33728 10.006C5.11853 10.0938 4.9436 10.24 4.81243 10.43V10.43ZM6.7515 6.04418H6.70775C6.69317 6.04418 6.664 6.04418 6.64942 6.05877C6.59108 6.30727 6.63483 6.57042 6.73692 6.80434C6.82442 6.55584 6.82442 6.29268 6.7515 6.04418ZM6.85358 8.16402L6.839 8.19318L6.82442 8.1786C6.69317 8.51489 6.54733 8.85111 6.38699 9.17274L6.41616 9.15816V9.18733C6.74038 9.06978 7.07148 8.97213 7.4076 8.89493L7.39302 8.88035H7.43677C7.21802 8.66102 7.01393 8.41252 6.85358 8.16402ZM8.83641 8.93883C8.70516 8.93883 8.58856 8.93883 8.45731 8.96799C8.60315 9.04113 8.74898 9.07037 8.89474 9.08503C8.99682 9.09961 9.09891 9.08503 9.18633 9.05579C9.18633 9.01189 9.128 8.93883 8.83641 8.93883Z" fill="white"/>
<path d="M11.4514 4.31006H9.08179L11.725 6.95329V4.5835L11.4514 4.31006Z" fill="url(#paint0_linear_454_5871)"/>
<path d="M9.74177 4.5835L11.7251 4.5835L8.80843 1.66683L8.80843 3.65016C8.80843 4.16563 9.2263 4.5835 9.74177 4.5835Z" fill="#B2B4BE"/>
<defs>
<filter id="filter0_ii_454_5871" x="2.2749" y="1.60817" width="9.44995" height="11.7832" filterUnits="userSpaceOnUse" color-interpolation-filters="sRGB">
<feFlood flood-opacity="0" result="BackgroundImageFix"/>
<feBlend mode="normal" in="SourceGraphic" in2="BackgroundImageFix" result="shape"/>
<feColorMatrix in="SourceAlpha" type="matrix" values="0 0 0 0 0 0 0 0 0 0 0 0 0 0 0 0 0 0 127 0" result="hardAlpha"/>
<feOffset dy="-0.116667"/>
<feGaussianBlur stdDeviation="0.0291667"/>
<feComposite in2="hardAlpha" operator="arithmetic" k2="-1" k3="1"/>
<feColorMatrix type="matrix" values="0 0 0 0 0 0 0 0 0 0 0 0 0 0 0 0 0 0 0.3 0"/>
<feBlend mode="normal" in2="shape" result="effect1_innerShadow_454_5871"/>
<feColorMatrix in="SourceAlpha" type="matrix" values="0 0 0 0 0 0 0 0 0 0 0 0 0 0 0 0 0 0 127 0" result="hardAlpha"/>
<feOffset dy="0.116667"/>
<feGaussianBlur stdDeviation="0.0291667"/>
<feComposite in2="hardAlpha" operator="arithmetic" k2="-1" k3="1"/>
<feColorMatrix type="matrix" values="0 0 0 0 1 0 0 0 0 1 0 0 0 0 1 0 0 0 0.3 0"/>
<feBlend mode="normal" in2="effect1_innerShadow_454_5871" result="effect2_innerShadow_454_5871"/>
</filter>
<linearGradient id="paint0_linear_454_5871" x1="9.67423" y1="3.71761" x2="12.3175" y2="6.36084" gradientUnits="userSpaceOnUse">
<stop stop-opacity="0.2"/>
<stop offset="1" stop-opacity="0"/>
</linearGradient>
</defs>
</svg>
