<svg width="35" height="35" viewBox="0 0 35 35" fill="none" xmlns="http://www.w3.org/2000/svg">
<circle cx="17.5" cy="17.5" r="17.5" fill="#EBF4FE"/>
<path d="M15 14.0002H20.1818H23.7273C24.3298 14.0002 24.8182 14.4887 24.8182 15.0912V24.3639H28H21.5455H18.8182H16.0909" stroke="#207DF7" stroke-width="1.63636"/>
<path d="M8.02346 16.1897L10.0846 15.2688C10.0874 15.2676 10.0897 15.2654 10.091 15.2627L11.6326 12.2236C11.6375 12.2139 11.6514 12.2139 11.6564 12.2236L13.1979 15.2626C13.1993 15.2654 13.2016 15.2676 13.2044 15.2688L15.3093 16.1897C15.3193 16.1941 15.3201 16.2079 15.3107 16.2134L13.2032 17.4429C13.2011 17.444 13.1994 17.4458 13.1983 17.4478L11.6561 20.1797C11.651 20.1887 11.638 20.1887 11.6329 20.1797L10.0906 17.4478C10.0895 17.4457 10.0879 17.444 10.0859 17.4429L8.02207 16.2134C8.01279 16.2078 8.01359 16.1941 8.02346 16.1897Z" fill="#207DF7" stroke="#207DF7" stroke-width="0.622226"/>
<path d="M14.2813 19.5266L15.6554 18.9127C15.6572 18.9119 15.6587 18.9104 15.6597 18.9086L16.6873 16.8826C16.6906 16.8761 16.6999 16.8761 16.7032 16.8826L17.7309 18.9086C17.7318 18.9104 17.7333 18.9119 17.7352 18.9127L19.1385 19.5266C19.1452 19.5295 19.1457 19.5388 19.1394 19.5424L17.7344 20.3621C17.733 20.3628 17.7319 20.364 17.7311 20.3654L16.703 22.1866C16.6996 22.1926 16.6909 22.1926 16.6875 22.1866L15.6594 20.3653C15.6586 20.364 15.6575 20.3628 15.6562 20.3621L14.2803 19.5424C14.2742 19.5387 14.2747 19.5296 14.2813 19.5266Z" fill="#207DF7" stroke="#207DF7" stroke-width="0.414818"/>
</svg>
