<svg width="24" height="24" viewBox="0 0 24 24" fill="none" xmlns="http://www.w3.org/2000/svg">
<path d="M5.61122 12.3843C5.45283 12.5336 5.30749 12.7339 5.19092 12.9996C4.36838 11.8829 3.51564 10.3269 3.16529 8.76224M5.61122 12.3843L3.16529 8.76224M5.61122 12.3843C5.85208 12.1573 6.12311 12.0486 6.36899 12.0081M3.16529 8.76224C3.06069 8.29511 3.00088 7.82721 3.00001 7.36998M3.00001 7.36998L6.36899 12.0081M3.00001 7.36998C2.99933 7.01399 3.03439 6.66448 3.11187 6.32684M6.36899 12.0081C6.59592 11.9708 6.80142 11.9917 6.94201 12.0316C6.95366 11.8478 6.96842 11.6705 6.98614 11.4996M6.98614 11.4996L3.11187 6.32684M6.98614 11.4996C7.01439 11.2272 7.05016 10.9709 7.09284 10.7299M3.11187 6.32684C3.17734 6.04152 3.2731 5.76468 3.4032 5.49958M3.4032 5.49958L7.09284 10.7299M3.4032 5.49958C3.51187 5.27814 3.6445 5.06489 3.80344 4.86173M7.09284 10.7299C7.14857 10.4151 7.21609 10.1265 7.29399 9.8623M7.29399 9.8623L3.80344 4.86173M7.29399 9.8623C7.36912 9.60747 7.45392 9.37531 7.54715 9.16425M3.80344 4.86173C3.93871 4.68883 4.09304 4.52324 4.26788 4.36613M4.26788 4.36613L7.54715 9.16425M4.26788 4.36613C4.41036 4.2381 4.56646 4.11571 4.73696 3.99958M7.54715 9.16425C7.64436 8.94416 7.75073 8.74701 7.86485 8.57103M7.86485 8.57103L4.73696 3.99958M7.86485 8.57103C7.98446 8.38658 8.11258 8.22538 8.2476 8.08537M4.73696 3.99958C4.91639 3.87738 5.11178 3.76212 5.32404 3.65454M5.32404 3.65454L8.2476 8.08537M5.32404 3.65454C5.4949 3.56794 5.67668 3.48633 5.86988 3.41008M8.2476 8.08537C8.38707 7.94074 8.5339 7.81873 8.6863 7.71707M8.6863 7.71707L5.86988 3.41008M8.6863 7.71707C8.84265 7.61277 9.00487 7.5299 9.17101 7.46601M5.86988 3.41008C6.02848 3.34748 6.19476 3.2885 6.36899 3.23335M6.36899 3.23335L9.17101 7.46601M6.36899 3.23335C6.56457 3.17144 6.77016 3.11436 6.98614 3.0624M9.17101 7.46601C9.34623 7.39864 9.52581 7.35237 9.7075 7.32435M6.98614 3.0624L9.7075 7.32435M6.98614 3.0624C7.16588 3.01917 7.35281 2.97948 7.54715 2.94352M9.7075 7.32435C9.91023 7.29309 10.1156 7.28454 10.3204 7.29473M10.3204 7.29473L7.54715 2.94352M10.3204 7.29473C10.5491 7.30611 10.777 7.34083 11 7.39337M7.54715 2.94352C7.74206 2.90745 7.94442 2.87513 8.15445 2.84672M8.15445 2.84672C8.28344 2.82928 8.41533 2.81332 8.55015 2.79887M8.15445 2.84672L11 7.39337M8.55015 2.79887L11.6924 7.61614M8.55015 2.79887C8.69694 2.73405 8.84701 2.66959 9 2.60574M11 7.39337C11.2383 7.44953 11.4709 7.52604 11.6924 7.61614M12.5884 8.08537C12.3259 7.91377 12.0214 7.74997 11.6924 7.61614M12.5884 8.08537L9 2.60574M12.5884 8.08537C12.8172 8.07591 13.0351 8.07301 13.2426 8.07607M9 2.60574C9.16347 2.53751 9.33029 2.47 9.5 2.4035M9.5 2.4035L13.2426 8.07607M9.5 2.4035C9.66409 2.33922 9.83088 2.27588 10 2.2138M13.2426 8.07607C13.4839 8.07963 13.7111 8.09125 13.9249 8.10998M13.9249 8.10998L10 2.2138M13.9249 8.10998C14.2528 8.13871 14.5492 8.18418 14.8168 8.24297M10 2.2138C10.1996 2.1405 10.4025 2.06894 10.608 1.99958M10.608 1.99958L14.8168 8.24297M10.608 1.99958C10.8241 1.92663 11.0431 1.85611 11.2642 1.78859M14.8168 8.24297C15.0303 8.2899 15.2254 8.34532 15.4034 8.40749M15.4034 8.40749L11.2642 1.78859M15.4034 8.40749C15.8669 8.5693 16.2146 8.77687 16.4701 8.99958M11.2642 1.78859C11.4502 1.73179 11.6377 1.6771 11.8262 1.62486M11.8262 1.62486L16.4701 8.99958M11.8262 1.62486C11.9833 1.58134 12.1411 1.53952 12.2993 1.49958M16.4701 8.99958C16.9297 9.40013 17.0912 9.84968 17.0912 10.1702C17.1926 10.1043 17.2929 10.0477 17.392 9.99958M17.392 9.99958L12.2993 1.49958M17.392 9.99958C17.6012 9.89796 17.8047 9.83396 18 9.79948M12.2993 1.49958C12.5321 1.44082 12.766 1.38615 13 1.33617M13 1.33617L18 9.79948M13 1.33617C13.2205 1.28908 13.4411 1.24615 13.6612 1.2079M18 9.79948C18.2593 9.75371 18.5042 9.76001 18.7287 9.79948M18.7287 9.79948L13.6612 1.2079M18.7287 9.79948C18.9542 9.83912 19.1592 9.9122 19.3377 9.99958M13.6612 1.2079C13.8324 1.17813 14.0033 1.1512 14.1736 1.12733M14.1736 1.12733L19.3377 9.99958M14.1736 1.12733C14.3893 1.09709 14.6039 1.07178 14.8168 1.05187M19.3377 9.99958C19.5209 10.0893 19.6763 10.194 19.7973 10.2932M19.7973 10.2932L14.8168 1.05187M19.7973 10.2932L20.2742 9.99958M14.8168 1.05187C14.9705 1.0375 15.1233 1.02594 15.275 1.01738M15.275 1.01738L20.2742 9.99958M15.275 1.01738C15.52 1.00356 15.762 0.996975 16 0.999584M20.2742 9.99958C20.3254 9.83001 20.3738 9.66336 20.4193 9.49958M20.4193 9.49958L16 0.999584M20.4193 9.49958C20.4919 9.23827 20.5573 8.98429 20.6157 8.73746M16 0.999584C16.2038 1.00182 16.4047 1.01036 16.6019 1.0257M16.6019 1.0257L20.6157 8.73746M16.6019 1.0257C16.8026 1.04131 16.9995 1.06396 17.192 1.09414M20.6157 8.73746C20.6761 8.48222 20.729 8.23464 20.7747 7.99452M20.7747 7.99452L17.192 1.09414M20.7747 7.99452C20.8324 7.69134 20.8785 7.40006 20.9137 7.12032M17.192 1.09414C17.4362 1.13246 17.6733 1.18292 17.9018 1.24657M17.9018 1.24657L20.9137 7.12032M17.9018 1.24657C18.1086 1.30419 18.3084 1.37262 18.5 1.45263M20.9137 7.12032C20.9634 6.72396 20.9911 6.35074 20.9982 5.99959M20.9982 5.99959L18.5 1.45263M20.9982 5.99959C21.0053 5.64399 20.9913 5.31103 20.9577 4.99959M18.5 1.45263C18.7573 1.56005 18.9999 1.68833 19.2254 1.83935M19.2254 1.83935C20.1553 2.46227 20.7926 3.47203 20.9577 4.99959M19.2254 1.83935L20.9577 4.99959M19.0181 15.5038C19.0181 18.8497 19.0359 20.0608 17.2818 21.7376C15.972 22.9897 13.2794 23.9308 10.3208 21.4213M15.0994 16.8767C15.7102 16.7748 16.8053 16.0856 16.0724 14.1822M7.33634 16.4931C5.95341 15.7165 3.73382 13.8086 5.91884 12.3899C6.21847 12.1812 6.92146 12.0561 7.33634 13.2244M12.0245 13.1767C12.0245 13.3766 11.857 13.5387 11.6505 13.5387M12.0245 13.1767C12.0245 12.9768 11.857 12.8148 11.6505 12.8148M12.0245 13.1767H11.2765M11.6505 13.5387C11.4439 13.5387 11.2765 13.3766 11.2765 13.1767M11.6505 13.5387V12.8148M11.2765 13.1767C11.2765 12.9768 11.4439 12.8148 11.6505 12.8148M15.6812 12.7746C15.6812 14.2627 16.8718 15.4691 18.3406 15.4691C19.8093 15.4691 21 14.2627 21 12.7746C21 11.2864 19.8093 10.08 18.3406 10.08C16.8718 10.08 15.6812 11.2864 15.6812 12.7746ZM15.6812 12.7746H14.5174M18.7561 13.0963C18.7561 13.2962 18.5887 13.4583 18.3821 13.4583M18.7561 13.0963C18.7561 12.8964 18.5887 12.7344 18.3821 12.7344M18.7561 13.0963H18.0082M18.3821 13.4583C18.1756 13.4583 18.0082 13.2962 18.0082 13.0963M18.3821 13.4583V12.7344M18.0082 13.0963C18.0082 12.8964 18.1756 12.7344 18.3821 12.7344M8.96021 12.4931L7.19032 12.8186M16.2436 18.7242C15.8177 19.1953 14.6009 19.8548 13.1407 18.7242M14.5177 12.7344C14.5177 14.2447 13.2712 15.4691 11.7336 15.4691C10.196 15.4691 8.94952 14.2447 8.94952 12.7344C8.94952 11.224 10.196 9.99959 11.7336 9.99959C13.2712 9.99959 14.5177 11.224 14.5177 12.7344Z" stroke="#6E7682" stroke-linecap="round"/>
</svg>
