<svg width="587" height="409" viewBox="0 0 587 409" fill="none" xmlns="http://www.w3.org/2000/svg">
<path d="M281.884 2.61794C281.989 0.543968 284.795 -0.0151301 285.687 1.85997L397.545 236.881C398.081 238.007 399.504 238.373 400.517 237.647L611.991 85.9045C613.679 84.6938 615.865 86.5386 614.955 88.4054L500.951 322.393C500.405 323.513 501.006 324.855 502.205 325.194L752.694 395.921C754.693 396.486 754.614 399.345 752.587 399.798L498.567 456.554C497.351 456.826 496.677 458.132 497.16 459.281L598.04 699.219C598.845 701.134 596.56 702.855 594.942 701.553L392.19 538.339C391.219 537.557 389.777 537.845 389.18 538.939L264.487 767.409C263.492 769.232 260.722 768.519 260.731 766.442L261.923 506.162C261.928 504.915 260.805 503.967 259.577 504.183L3.20655 549.142C1.16112 549.501 -0.00822625 546.89 1.62127 545.603L205.859 384.252C206.837 383.48 206.878 382.01 205.944 381.185L10.9491 208.778C9.3933 207.403 10.7053 204.861 12.7278 205.332L266.217 264.411C267.431 264.694 268.605 263.81 268.669 262.565L281.884 2.61794Z" fill="#072D5F"/>
</svg>
