<svg fill="#6E7682" height="15px" width="15px" version="1.1" id="Layer_1" xmlns="http://www.w3.org/2000/svg" xmlns:xlink="http://www.w3.org/1999/xlink" viewBox="0 0 511.787 511.787" xml:space="preserve" stroke="#6E7682" stroke-width="11.771101"><g id="SVGRepo_bgCarrier" stroke-width="0"></g><g id="SVGRepo_tracerCarrier" stroke-linecap="round" stroke-linejoin="round"></g><g id="SVGRepo_iconCarrier"> <g transform="translate(1 1)"> <g> <g> <path d="M484.44,182.253l-58.88-102.4c-0.853-1.707-1.707-2.56-3.413-3.413l-163.84-76.8c-2.56-0.853-5.12-0.853-7.68,0 L87.64,76.44c-0.853,0.853-2.56,1.707-3.413,3.413l-58.88,102.4c-1.707,2.56-1.707,5.973,0,8.533s4.267,4.267,7.68,4.267h17.067 v307.2c0,5.12,3.413,8.533,8.533,8.533h119.467h153.6H451.16c5.12,0,8.533-3.413,8.533-8.533v-307.2h17.067 c3.413,0,5.973-1.707,7.68-4.267S486.147,184.813,484.44,182.253z M323.16,481.773l-56.32-56.32l56.32-56.32V481.773z M311.213,493.72h-112.64l56.32-56.32L311.213,493.72z M254.893,413.507l-56.32-56.32h112.64L254.893,413.507z M242.947,425.453 l-56.32,56.32v-112.64L242.947,425.453z M442.627,493.72h-102.4V348.655c0-0.003,0-0.006,0-0.009 c-0.004-5.113-3.412-8.522-8.525-8.525c-0.003,0-0.006,0-0.009,0H178.095c-0.003,0-0.006,0-0.009,0 c-5.116,0.004-8.526,3.416-8.526,8.533V493.72H67.16V195.053h8.533c3.413,0,5.973-1.707,7.68-4.267l43.52-75.093l128-64.853 l128,64.853l43.52,75.093c1.707,2.56,4.267,4.267,7.68,4.267h8.533V493.72z M451.16,177.987h-11.947L396.547,104.6 c-0.853-1.707-1.707-2.56-3.413-3.413L258.307,33.773c-2.56-0.853-5.12-0.853-7.68,0L115.8,101.187 c-1.707,0.853-2.56,1.707-3.413,3.413l-41.813,73.387H58.627H47.533l50.347-87.04l157.013-74.24l157.013,74.24l50.347,87.04 H451.16z"></path> <path d="M212.227,263.32v-59.733c0-5.12-3.413-8.533-8.533-8.533h-68.267c-5.12,0-8.533,3.413-8.533,8.533v59.733 c-5.12,0-8.533,3.413-8.533,8.533c0,5.12,3.413,8.533,8.533,8.533h8.533h68.267h8.533c5.12,0,8.533-3.413,8.533-8.533 C220.76,266.733,217.347,263.32,212.227,263.32z M143.96,212.12h51.2v51.2h-51.2V212.12z"></path> <path d="M382.893,263.32v-59.733c0-5.12-3.413-8.533-8.533-8.533h-68.267c-5.12,0-8.533,3.413-8.533,8.533v59.733 c-5.12,0-8.533,3.413-8.533,8.533c0,5.12,3.413,8.533,8.533,8.533h8.533h68.267h8.533c5.12,0,8.533-3.413,8.533-8.533 C391.427,266.733,388.013,263.32,382.893,263.32z M314.627,212.12h51.2v51.2h-51.2V212.12z"></path> <path d="M289.027,118.253c0-18.773-15.36-34.133-34.133-34.133s-34.133,15.36-34.133,34.133v17.067 c0,5.12,3.413,8.533,8.533,8.533h51.2c5.12,0,8.533-3.413,8.533-8.533V118.253z M271.96,126.787h-34.133v-8.533 c0-9.387,7.68-17.067,17.067-17.067c9.387,0,17.067,7.68,17.067,17.067V126.787z"></path> </g> </g> </g> </g></svg>