<svg width="24" height="25" viewBox="0 0 24 25" fill="none" xmlns="http://www.w3.org/2000/svg">
<path d="M19.3399 15.49L18.3399 13.83C18.1299 13.46 17.9399 12.76 17.9399 12.35V9.82C17.9399 7.47 16.5599 5.44 14.5699 4.49C14.0499 3.57 13.0899 3 11.9899 3C10.8999 3 9.91994 3.59 9.39994 4.52C7.44994 5.49 6.09994 7.5 6.09994 9.82V12.35C6.09994 12.76 5.90994 13.46 5.69994 13.82L4.68994 15.49C4.28994 16.16 4.19994 16.9 4.44994 17.58C4.68994 18.25 5.25994 18.77 5.99994 19.02C7.93994 19.68 9.97994 20 12.0199 20C14.0599 20 16.0999 19.68 18.0399 19.03C18.7399 18.8 19.2799 18.27 19.5399 17.58C19.7999 16.89 19.7299 16.13 19.3399 15.49Z" fill="#585F68"/>
<path d="M14.8302 21.01C14.4102 22.17 13.3002 23 12.0002 23C11.2102 23 10.4302 22.68 9.88018 22.11C9.56018 21.81 9.32018 21.41 9.18018 21C9.31018 21.02 9.44018 21.03 9.58018 21.05C9.81018 21.08 10.0502 21.11 10.2902 21.13C10.8602 21.18 11.4402 21.21 12.0202 21.21C12.5902 21.21 13.1602 21.18 13.7202 21.13C13.9302 21.11 14.1402 21.1 14.3402 21.07C14.5002 21.05 14.6602 21.03 14.8302 21.01Z" fill="#585F68"/>
<circle cx="18" cy="5" r="4.3" fill="#F53535" stroke="white" stroke-width="1.4"/>
</svg>
