<svg width="150" height="201" viewBox="0 0 150 201" fill="none" xmlns="http://www.w3.org/2000/svg">
<path d="M93.791 61.0245C60.9026 72.5641 43.5287 108.72 55.0683 141.608C66.6079 174.497 102.788 191.94 135.676 180.4C168.565 168.86 185.939 132.705 174.399 99.8161C162.86 66.9276 126.679 49.4849 93.791 61.0245ZM119.109 116.665C120.099 119.486 118.581 122.647 115.76 123.636C112.939 124.626 109.779 123.108 108.789 120.287L96.7181 85.8845C95.7283 83.0636 97.2468 79.9034 100.068 78.9136C102.889 77.9238 106.049 79.4424 107.039 82.2633L119.109 116.665Z" fill="#5C6C8A" fill-opacity="0.08"/>
<path d="M110.778 45.7911L71.0096 59.7448C68.2574 60.7105 65.2832 59.2812 64.3175 56.5291C63.3518 53.7769 64.7569 50.7338 67.5091 49.7682L107.278 35.8144C110.03 34.8488 113.004 36.278 113.97 39.0302C114.936 41.7823 113.531 44.8254 110.778 45.7911Z" fill="#5C6C8A" fill-opacity="0.08"/>
</svg>
