<svg width="138" height="190" viewBox="0 0 138 190" fill="none" xmlns="http://www.w3.org/2000/svg">
<path d="M175.245 79.3034C170.468 71.3925 160.958 66.0527 146.213 63.1866L144.496 62.8527L144.551 62.5664C146.889 50.5415 149.783 35.6534 122.87 30.4221L111.99 28.3073C85.077 23.076 82.1692 38.0355 79.8457 49.9889L79.7761 50.3468L78.0583 50.0129C63.2418 47.1328 52.4956 48.5352 45.1037 54.0808C36.4871 60.5769 34.6427 71.212 33.9532 78.5804L33.9274 79.0954L33.2053 86.5134C33.1908 86.6632 33.242 86.8091 33.3492 86.9147C34.1823 87.7349 37.9316 91.4091 39.9665 93.12C40.8434 93.9589 41.8057 94.7402 42.7681 95.5216C53.6999 104.629 66.2798 111.754 79.5197 116.63C78.8561 123.484 80.2603 131.928 95.9357 134.975C111.611 138.022 116.205 130.818 118.056 123.972C133.117 124.449 148.205 122.108 162.393 117.14C162.864 117.009 163.192 116.85 163.592 116.705C167.176 115.507 170.992 113.854 174.381 112.248C174.507 112.189 174.602 112.079 174.644 111.946L175.366 109.634L176.378 106.339C176.533 105.924 176.602 105.566 176.771 105.079C178.749 97.9607 180.526 88.0552 175.245 79.3034ZM108.452 117.203C106.978 124.79 106.755 125.935 97.9511 124.224C89.1471 122.513 89.4114 121.153 90.8306 113.852L92.5836 104.833L110.192 108.256L108.452 117.203ZM90.0255 52.2648L90.0812 51.9785C92.4464 39.8104 93.3229 35.301 110 38.5428L120.88 40.6576C137.558 43.8994 136.667 48.4803 134.316 60.5768L134.246 60.9347L90.0116 52.3364L90.0255 52.2648Z" fill="white" fill-opacity="0.1"/>
<path d="M169.758 125.904C170.136 125.801 170.474 126.154 170.364 126.531L160.721 159.75C156.436 173.773 147.728 187.234 116.234 181.112L61.6926 170.511C30.1987 164.389 27.1676 148.646 28.4333 134.11L31.7663 101.329C31.8055 100.943 32.2404 100.74 32.5533 100.968C36.6437 103.946 57.6901 119.113 68.6345 123.891C68.7901 123.959 68.8942 124.098 68.9244 124.265C70.922 135.331 79.548 142.709 93.8903 145.497C108.091 148.257 119.033 144.464 125.033 134.949C125.124 134.805 125.273 134.715 125.443 134.71C138.07 134.368 164.656 127.291 169.758 125.904Z" fill="white" fill-opacity="0.1"/>
</svg>
