<svg width="30" height="30" viewBox="0 0 30 30" fill="none" xmlns="http://www.w3.org/2000/svg">
<path d="M15 12.5C17.7614 12.5 20 10.2614 20 7.5C20 4.73858 17.7614 2.5 15 2.5C12.2386 2.5 10 4.73858 10 7.5C10 10.2614 12.2386 12.5 15 12.5ZM6.875 16.25C8.60089 16.25 10 14.8509 10 13.125C10 11.3991 8.60089 10 6.875 10C5.14911 10 3.75 11.3991 3.75 13.125C3.75 14.8509 5.14911 16.25 6.875 16.25ZM26.25 13.125C26.25 14.8509 24.8509 16.25 23.125 16.25C21.3991 16.25 20 14.8509 20 13.125C20 11.3991 21.3991 10 23.125 10C24.8509 10 26.25 11.3991 26.25 13.125ZM15 13.75C18.4518 13.75 21.25 16.5483 21.25 20V27.5H8.75V20C8.75 16.5483 11.5482 13.75 15 13.75ZM6.25 19.9999C6.25 19.1338 6.37584 18.297 6.61023 17.507L6.3983 17.5255C4.20629 17.763 2.5 19.6198 2.5 21.8749V27.4999H6.25V19.9999ZM27.5 27.4999V21.8749C27.5 19.5473 25.6824 17.6441 23.3898 17.507C23.6241 18.297 23.75 19.1338 23.75 19.9999V27.4999H27.5Z" fill="#6E7682"/>
</svg>
