<svg width="45" height="45" viewBox="0 0 45 45" fill="none" xmlns="http://www.w3.org/2000/svg">
<circle cx="22.5" cy="22.5" r="22.5" fill="#FFEFE6"/>
<g filter="url(#filter0_ii_454_5862)">
<path fill-rule="evenodd" clip-rule="evenodd" d="M17.021 14.5835C16.5055 14.5835 16.0876 15.0014 16.0876 15.5168V29.4835C16.0876 29.999 16.5055 30.4168 17.021 30.4168H27.9793C28.4948 30.4168 28.9126 29.999 28.9126 29.4835V18.5418L24.9543 14.5835H17.021Z" fill="#FB8441"/>
</g>
<path d="M25.0714 25.2467C24.5372 25.207 24.0228 25.0086 23.6072 24.6515C22.796 24.83 22.0242 25.0879 21.2525 25.4055C20.6392 26.4967 20.0653 27.0522 19.5706 27.0522C19.4717 27.0522 19.353 27.0324 19.2739 26.9729C19.0562 26.8737 18.9375 26.6554 18.9375 26.4372C18.9375 26.2586 18.9771 25.7626 20.8568 24.9491C21.2922 24.1554 21.6285 23.342 21.9056 22.4889C21.6681 22.0127 21.1537 20.842 21.5097 20.2469C21.6285 20.0286 21.866 19.9095 22.1233 19.9294C22.3211 19.9294 22.5189 20.0286 22.6377 20.1873C22.8949 20.5444 22.8752 21.2984 22.5387 22.4095C22.8554 23.0039 23.2701 23.5405 23.7655 23.9968C24.1811 23.9173 24.5965 23.8578 25.0121 23.8578C25.9421 23.8776 26.0806 24.3141 26.0608 24.5721C26.0608 25.2467 25.4078 25.2467 25.0714 25.2467ZM19.5312 26.4768L19.5905 26.457C19.8675 26.3578 20.0851 26.1594 20.2435 25.9014C19.9466 26.0205 19.7092 26.2189 19.5312 26.4769V26.4768ZM22.1628 20.5246H22.1034C22.0836 20.5246 22.044 20.5246 22.0242 20.5444C21.945 20.8817 22.0044 21.2388 22.143 21.5563C22.2617 21.219 22.2617 20.8619 22.1628 20.5246ZM22.3013 23.4015L22.2815 23.4411L22.2617 23.4213C22.0836 23.8777 21.8857 24.334 21.6681 24.7705L21.7076 24.7507V24.7903C22.1477 24.6308 22.597 24.4983 23.0532 24.3935L23.0334 24.3737H23.0928C22.7959 24.076 22.5189 23.7388 22.3013 23.4015ZM24.9923 24.4531C24.8141 24.4531 24.6559 24.4531 24.4778 24.4927C24.6757 24.5919 24.8736 24.6316 25.0714 24.6515C25.21 24.6713 25.3485 24.6515 25.4672 24.6118C25.4672 24.5522 25.388 24.4531 24.9923 24.4531Z" fill="white"/>
<path d="M28.5411 18.1704L25.3252 18.1704L28.9124 21.7576V18.5415L28.5411 18.1704Z" fill="url(#paint0_linear_454_5862)"/>
<path d="M25.8876 18.5415L28.9126 18.5415L24.9543 14.5832L24.9543 17.6082C24.9543 18.1236 25.3721 18.5415 25.8876 18.5415Z" fill="#FDB8B8"/>
<defs>
<filter id="filter0_ii_454_5862" x="16.0876" y="14.5252" width="12.825" height="15.9502" filterUnits="userSpaceOnUse" color-interpolation-filters="sRGB">
<feFlood flood-opacity="0" result="BackgroundImageFix"/>
<feBlend mode="normal" in="SourceGraphic" in2="BackgroundImageFix" result="shape"/>
<feColorMatrix in="SourceAlpha" type="matrix" values="0 0 0 0 0 0 0 0 0 0 0 0 0 0 0 0 0 0 127 0" result="hardAlpha"/>
<feOffset dy="-0.116667"/>
<feGaussianBlur stdDeviation="0.0291667"/>
<feComposite in2="hardAlpha" operator="arithmetic" k2="-1" k3="1"/>
<feColorMatrix type="matrix" values="0 0 0 0 0 0 0 0 0 0 0 0 0 0 0 0 0 0 0.3 0"/>
<feBlend mode="normal" in2="shape" result="effect1_innerShadow_454_5862"/>
<feColorMatrix in="SourceAlpha" type="matrix" values="0 0 0 0 0 0 0 0 0 0 0 0 0 0 0 0 0 0 127 0" result="hardAlpha"/>
<feOffset dy="0.116667"/>
<feGaussianBlur stdDeviation="0.0291667"/>
<feComposite in2="hardAlpha" operator="arithmetic" k2="-1" k3="1"/>
<feColorMatrix type="matrix" values="0 0 0 0 1 0 0 0 0 1 0 0 0 0 1 0 0 0 0.3 0"/>
<feBlend mode="normal" in2="effect1_innerShadow_454_5862" result="effect2_innerShadow_454_5862"/>
</filter>
<linearGradient id="paint0_linear_454_5862" x1="26.1292" y1="17.3664" x2="29.7165" y2="20.9536" gradientUnits="userSpaceOnUse">
<stop stop-opacity="0.2"/>
<stop offset="1" stop-opacity="0"/>
</linearGradient>
</defs>
</svg>
