<svg width="14" height="15" viewBox="0 0 14 15" fill="none" xmlns="http://www.w3.org/2000/svg">
<mask id="mask0_454_5898" style="mask-type:alpha" maskUnits="userSpaceOnUse" x="2" y="1" width="10" height="13">
<path d="M2.33325 1.95801C2.33325 1.47476 2.725 1.08301 3.20825 1.08301H8.16659L11.6666 4.58301V13.0413C11.6666 13.5246 11.2748 13.9163 10.7916 13.9163H3.20825C2.725 13.9163 2.33325 13.5246 2.33325 13.0413V1.95801Z" fill="black"/>
</mask>
<g mask="url(#mask0_454_5898)">
<path d="M2.33325 1.95801C2.33325 1.47476 2.725 1.08301 3.20825 1.08301H10.7916C11.2748 1.08301 11.6666 1.47476 11.6666 1.95801V13.0413C11.6666 13.5246 11.2748 13.9163 10.7916 13.9163H3.20825C2.725 13.9163 2.33325 13.5246 2.33325 13.0413V1.95801Z" fill="#969CA6"/>
<path fill-rule="evenodd" clip-rule="evenodd" d="M3.20825 13.917C2.725 13.917 2.33325 13.5252 2.33325 13.042V12.9025C2.33689 13.3826 2.72724 13.7707 3.20823 13.7707H10.7916C11.2748 13.7707 11.6666 13.379 11.6666 12.8957V1.95187C11.6666 1.95413 11.6666 1.9564 11.6666 1.95866V13.042C11.6666 13.5252 11.2748 13.917 10.7916 13.917H3.20825Z" fill="#969CA6"/>
<path fill-rule="evenodd" clip-rule="evenodd" d="M3.20825 1.08301C2.725 1.08301 2.33325 1.47476 2.33325 1.95801V2.09751C2.33689 1.61738 2.72724 1.22929 3.20823 1.22929H10.7916C11.2748 1.22929 11.6666 1.62104 11.6666 2.10429V13.0481C11.6666 13.0459 11.6666 13.0436 11.6666 13.0413V1.95801C11.6666 1.47476 11.2748 1.08301 10.7916 1.08301H3.20825Z" fill="#CDD1D5"/>
<path d="M11.6667 7.57324L8.54018 4.44667C8.40237 4.30887 8.49997 4.07324 8.69486 4.07324H11.6667V7.57324Z" fill="#CDD1D5"/>
<path d="M8.16675 1.08301L11.6667 4.58301H9.04175C8.5585 4.58301 8.16675 4.19126 8.16675 3.70801V1.08301Z" fill="#B2B4BE"/>
<path fill-rule="evenodd" clip-rule="evenodd" d="M9.33342 7.5H4.66675V8.08333H9.33342V7.5ZM9.33344 8.66679H4.66677V9.25012H9.33344V8.66679ZM4.66677 9.83321H9.33344V10.4165H4.66677V9.83321ZM8.16677 11H4.66677V11.5833H8.16677V11Z" fill="white"/>
</g>
</svg>
