<svg width="35" height="35" viewBox="0 0 35 35" fill="none" xmlns="http://www.w3.org/2000/svg">
<circle cx="17.5" cy="17.5" r="17.5" fill="#EBF4FE"/>
<path d="M20 16.0909V12.3C20 12.1343 20.1343 12 20.3 12H24.7C24.8657 12 25 12.1343 25 12.3V15.7909C25 15.9566 24.8657 16.0909 24.7 16.0909H20.9091M20 16.0909V17L20.9091 16.0909M20 16.0909H20.9091M10 24.2727H20.4545V23.0091C20.4545 22.9442 20.4335 22.8807 20.3939 22.8293C19.0335 21.0621 17.1163 20.1072 15.4545 20.1818C13.6631 20.1818 11.4304 21.0644 10.0607 22.8295C10.0209 22.8808 10 22.9442 10 23.0091V24.2727Z" stroke="#207DF7" stroke-width="1.5"/>
<circle cx="15.4538" cy="15.6365" r="1.97727" stroke="#207DF7" stroke-width="1.5"/>
</svg>
