<svg width="35" height="35" viewBox="0 0 35 35" fill="none" xmlns="http://www.w3.org/2000/svg">
<circle cx="17.5" cy="17.5" r="17.5" fill="#EBF4FE"/>
<path d="M13.3332 12.3333V9.83333C13.3332 9.3731 13.7063 9 14.1665 9H24.1665C24.6267 9 24.9998 9.3731 24.9998 9.83333V21.5C24.9998 21.9602 24.6267 22.3333 24.1665 22.3333H21.6665V24.8326C21.6665 25.2932 21.2916 25.6667 20.8275 25.6667H10.8389C10.3755 25.6667 10 25.2962 10 24.8326L10.0022 13.1674C10.0022 12.7068 10.3772 12.3333 10.8412 12.3333H13.3332ZM11.6687 14L11.6668 24H19.9998V14H11.6687ZM14.9998 12.3333H21.6665V20.6667H23.3332V10.6667H14.9998V12.3333ZM13.3333 16.5H18.3333V18.1667H13.3333V16.5ZM13.3333 19.8333H18.3333V21.5H13.3333V19.8333Z" fill="#207DF7"/>
</svg>
