<svg width="19" height="19" viewBox="0 0 19 19" fill="none" xmlns="http://www.w3.org/2000/svg">
<path d="M10.7271 15.9602C10.5213 16.0473 10.2996 16.1264 10.0621 16.2056L8.81128 16.6173C5.66836 17.6306 4.01378 16.7835 2.99253 13.6406L1.97919 10.5135C0.965859 7.3706 1.80503 5.7081 4.94794 4.69477L6.16711 4.29102C6.01669 4.67102 5.89003 5.10643 5.77128 5.59727L4.99544 8.91435C4.12461 12.6431 5.39919 14.7014 9.12794 15.5881L10.4579 15.9048C10.545 15.9285 10.64 15.9443 10.7271 15.9602Z" fill="#969CA6"/>
<path d="M13.593 2.5414L12.2709 2.23265C9.62673 1.60723 8.05131 2.12182 7.12506 4.03765C6.88756 4.52057 6.69756 5.1064 6.53923 5.77932L5.76339 9.0964C4.98756 12.4056 6.00881 14.0364 9.31006 14.8201L10.6401 15.1368C11.0992 15.2476 11.5267 15.3189 11.9226 15.3506C14.3926 15.5881 15.7067 14.4322 16.3717 11.5743L17.1476 8.26515C17.9234 4.95598 16.9101 3.31723 13.593 2.5414Z" fill="#969CA6"/>
</svg>
