<svg width="45" height="45" viewBox="0 0 45 45" fill="none" xmlns="http://www.w3.org/2000/svg">
<circle cx="22.5" cy="22.5" r="22.5" fill="#FFEFE6"/>
<path d="M25.4925 14.5835H19.5075C16.515 14.5835 15.7708 15.3831 15.7708 18.5735V27.4877C15.7708 29.5935 16.9267 30.0922 18.3279 28.5881L18.3358 28.5802C18.985 27.8914 19.9746 27.9468 20.5367 28.6989L21.3363 29.7677C21.9775 30.6147 23.0146 30.6147 23.6558 29.7677L24.4554 28.6989C25.0254 27.9389 26.015 27.8835 26.6642 28.5802C28.0733 30.0843 29.2213 29.5856 29.2213 27.4797V18.5735C29.2292 15.3831 28.485 14.5835 25.4925 14.5835ZM24.875 22.3022H20.125C19.8004 22.3022 19.5313 22.0331 19.5313 21.7085C19.5313 21.3839 19.8004 21.1147 20.125 21.1147H24.875C25.1996 21.1147 25.4688 21.3839 25.4688 21.7085C25.4688 22.0331 25.1996 22.3022 24.875 22.3022ZM25.6667 19.1356H19.3333C19.0088 19.1356 18.7396 18.8664 18.7396 18.5418C18.7396 18.2172 19.0088 17.9481 19.3333 17.9481H25.6667C25.9913 17.9481 26.2604 18.2172 26.2604 18.5418C26.2604 18.8664 25.9913 19.1356 25.6667 19.1356Z" fill="#FB8441"/>
</svg>
