<svg width="21" height="20" viewBox="0 0 21 20" fill="none" xmlns="http://www.w3.org/2000/svg">
    <path
        d="M13.1862 12.9228L11.3423 16.7979C11.2236 17.0473 10.9253 17.1533 10.6759 17.0346C10.6203 17.0082 10.5701 16.9717 10.5278 16.9269L7.57658 13.8113C7.49758 13.7279 7.39228 13.6743 7.27838 13.6594L3.02314 13.1032C2.74932 13.0673 2.55637 12.8164 2.59216 12.5426C2.60014 12.4815 2.61933 12.4225 2.64876 12.3684L4.69993 8.59893C4.75484 8.49801 4.77333 8.38126 4.75229 8.26835L3.96634 4.0495C3.91576 3.77803 4.09484 3.51696 4.36631 3.46638C4.42684 3.45511 4.48893 3.45511 4.54946 3.46638L8.76831 4.25233C8.88126 4.27337 8.99801 4.25488 9.09884 4.19998L12.8683 2.1488C13.1109 2.01681 13.4146 2.10644 13.5465 2.349C13.576 2.40308 13.5952 2.46213 13.6031 2.52318L14.1593 6.77842C14.1743 6.89233 14.2279 6.99763 14.3113 7.07662L17.4269 10.0278C17.6274 10.2177 17.636 10.5342 17.4461 10.7346C17.4038 10.7793 17.3535 10.8158 17.2979 10.8423L13.4228 12.6862C13.3191 12.7356 13.2355 12.8191 13.1862 12.9228ZM13.8502 14.5288L15.0287 13.3503L18.5643 16.8858L17.3858 18.0643L13.8502 14.5288Z"
        fill="white" />
</svg>