<svg width="16" height="16" viewBox="0 0 16 16" fill="none" xmlns="http://www.w3.org/2000/svg">
    <path
        d="M7.99967 1.33301C11.6815 1.33301 14.6663 4.31777 14.6663 7.99967C14.6663 11.6815 11.6815 14.6663 7.99967 14.6663C4.31777 14.6663 1.33301 11.6815 1.33301 7.99967H2.66634C2.66634 10.9452 5.05415 13.333 7.99967 13.333C10.9452 13.333 13.333 10.9452 13.333 7.99967C13.333 5.05415 10.9452 2.66634 7.99967 2.66634C6.3571 2.66634 4.88796 3.40889 3.90962 4.57663L5.33301 5.99967H1.33301V1.99967L2.96405 3.63066C4.18635 2.22307 5.98907 1.33301 7.99967 1.33301ZM8.66634 4.66634L8.66621 7.72301L10.8281 9.88527L9.88527 10.8281L7.33287 8.27501L7.33301 4.66634H8.66634Z"
        fill="#6E7682" />
</svg>