<svg width="30" height="30" viewBox="0 0 30 30" fill="none" xmlns="http://www.w3.org/2000/svg">
<circle cx="15" cy="15" r="15" fill="#F1F1F4"/>
<mask id="path-2-inside-1_4479_13642" fill="white">
<path d="M11.9374 7.7085H18.0624C20.3958 7.7085 22.2916 9.60433 22.2916 11.9377V18.0627C22.2916 19.1843 21.846 20.26 21.0529 21.0531C20.2598 21.8463 19.1841 22.2918 18.0624 22.2918H11.9374C9.60409 22.2918 7.70825 20.396 7.70825 18.0627V11.9377C7.70825 10.816 8.15382 9.74031 8.94695 8.94719C9.74007 8.15407 10.8158 7.7085 11.9374 7.7085ZM11.7916 9.16683C11.0954 9.16683 10.4277 9.44339 9.93543 9.93567C9.44315 10.428 9.16659 11.0956 9.16659 11.7918V18.2085C9.16659 19.6595 10.3405 20.8335 11.7916 20.8335H18.2083C18.9044 20.8335 19.5721 20.5569 20.0644 20.0647C20.5567 19.5724 20.8333 18.9047 20.8333 18.2085V11.7918C20.8333 10.3408 19.6593 9.16683 18.2083 9.16683H11.7916ZM18.828 10.2606C19.0698 10.2606 19.3016 10.3566 19.4725 10.5275C19.6435 10.6985 19.7395 10.9303 19.7395 11.172C19.7395 11.4138 19.6435 11.6456 19.4725 11.8165C19.3016 11.9875 19.0698 12.0835 18.828 12.0835C18.5863 12.0835 18.3545 11.9875 18.1835 11.8165C18.0126 11.6456 17.9166 11.4138 17.9166 11.172C17.9166 10.9303 18.0126 10.6985 18.1835 10.5275C18.3545 10.3566 18.5863 10.2606 18.828 10.2606ZM14.9999 11.3543C15.9669 11.3543 16.8942 11.7384 17.5779 12.4222C18.2616 13.1059 18.6458 14.0332 18.6458 15.0002C18.6458 15.9671 18.2616 16.8944 17.5779 17.5782C16.8942 18.2619 15.9669 18.646 14.9999 18.646C14.033 18.646 13.1057 18.2619 12.4219 17.5782C11.7382 16.8944 11.3541 15.9671 11.3541 15.0002C11.3541 14.0332 11.7382 13.1059 12.4219 12.4222C13.1057 11.7384 14.033 11.3543 14.9999 11.3543ZM14.9999 12.8127C14.4198 12.8127 13.8634 13.0431 13.4531 13.4534C13.0429 13.8636 12.8124 14.42 12.8124 15.0002C12.8124 15.5803 13.0429 16.1367 13.4531 16.547C13.8634 16.9572 14.4198 17.1877 14.9999 17.1877C15.5801 17.1877 16.1365 16.9572 16.5467 16.547C16.957 16.1367 17.1874 15.5803 17.1874 15.0002C17.1874 14.42 16.957 13.8636 16.5467 13.4534C16.1365 13.0431 15.5801 12.8127 14.9999 12.8127Z"/>
</mask>
<path d="M11.9374 7.7085H18.0624C20.3958 7.7085 22.2916 9.60433 22.2916 11.9377V18.0627C22.2916 19.1843 21.846 20.26 21.0529 21.0531C20.2598 21.8463 19.1841 22.2918 18.0624 22.2918H11.9374C9.60409 22.2918 7.70825 20.396 7.70825 18.0627V11.9377C7.70825 10.816 8.15382 9.74031 8.94695 8.94719C9.74007 8.15407 10.8158 7.7085 11.9374 7.7085ZM11.7916 9.16683C11.0954 9.16683 10.4277 9.44339 9.93543 9.93567C9.44315 10.428 9.16659 11.0956 9.16659 11.7918V18.2085C9.16659 19.6595 10.3405 20.8335 11.7916 20.8335H18.2083C18.9044 20.8335 19.5721 20.5569 20.0644 20.0647C20.5567 19.5724 20.8333 18.9047 20.8333 18.2085V11.7918C20.8333 10.3408 19.6593 9.16683 18.2083 9.16683H11.7916ZM18.828 10.2606C19.0698 10.2606 19.3016 10.3566 19.4725 10.5275C19.6435 10.6985 19.7395 10.9303 19.7395 11.172C19.7395 11.4138 19.6435 11.6456 19.4725 11.8165C19.3016 11.9875 19.0698 12.0835 18.828 12.0835C18.5863 12.0835 18.3545 11.9875 18.1835 11.8165C18.0126 11.6456 17.9166 11.4138 17.9166 11.172C17.9166 10.9303 18.0126 10.6985 18.1835 10.5275C18.3545 10.3566 18.5863 10.2606 18.828 10.2606ZM14.9999 11.3543C15.9669 11.3543 16.8942 11.7384 17.5779 12.4222C18.2616 13.1059 18.6458 14.0332 18.6458 15.0002C18.6458 15.9671 18.2616 16.8944 17.5779 17.5782C16.8942 18.2619 15.9669 18.646 14.9999 18.646C14.033 18.646 13.1057 18.2619 12.4219 17.5782C11.7382 16.8944 11.3541 15.9671 11.3541 15.0002C11.3541 14.0332 11.7382 13.1059 12.4219 12.4222C13.1057 11.7384 14.033 11.3543 14.9999 11.3543ZM14.9999 12.8127C14.4198 12.8127 13.8634 13.0431 13.4531 13.4534C13.0429 13.8636 12.8124 14.42 12.8124 15.0002C12.8124 15.5803 13.0429 16.1367 13.4531 16.547C13.8634 16.9572 14.4198 17.1877 14.9999 17.1877C15.5801 17.1877 16.1365 16.9572 16.5467 16.547C16.957 16.1367 17.1874 15.5803 17.1874 15.0002C17.1874 14.42 16.957 13.8636 16.5467 13.4534C16.1365 13.0431 15.5801 12.8127 14.9999 12.8127Z" fill="#6E7682"/>
<path d="M22.2916 18.0627H28.3333H22.2916ZM7.70825 11.9377H1.66658H7.70825ZM11.7916 9.16683V3.12516V9.16683ZM9.16659 11.7918H3.12492H9.16659ZM18.6458 15.0002H12.6041H18.6458ZM14.9999 18.646V12.6043V18.646ZM11.9374 13.7502H18.0624V1.66683H11.9374V13.7502ZM18.0624 13.7502C17.059 13.7502 16.2499 12.941 16.2499 11.9377H28.3333C28.3333 6.26761 23.7325 1.66683 18.0624 1.66683V13.7502ZM16.2499 11.9377V18.0627H28.3333V11.9377H16.2499ZM16.2499 18.0627C16.2499 17.582 16.4409 17.1209 16.7808 16.781L25.325 25.3252C27.2512 23.3991 28.3333 20.7867 28.3333 18.0627H16.2499ZM16.7808 16.781C17.1207 16.4411 17.5817 16.2502 18.0624 16.2502V28.3335C20.7864 28.3335 23.3988 27.2514 25.325 25.3252L16.7808 16.781ZM18.0624 16.2502H11.9374V28.3335H18.0624V16.2502ZM11.9374 16.2502C12.9408 16.2502 13.7499 17.0593 13.7499 18.0627H1.66658C1.66658 23.7327 6.26737 28.3335 11.9374 28.3335V16.2502ZM13.7499 18.0627V11.9377H1.66658V18.0627H13.7499ZM13.7499 11.9377C13.7499 12.4184 13.559 12.8794 13.219 13.2193L4.67484 4.67509C2.74869 6.60124 1.66658 9.21367 1.66658 11.9377H13.7499ZM13.219 13.2193C12.8791 13.5592 12.4181 13.7502 11.9374 13.7502V1.66683C9.21342 1.66683 6.601 2.74893 4.67484 4.67509L13.219 13.2193ZM11.7916 3.12516C9.49304 3.12516 7.28864 4.03826 5.66333 5.66357L14.2075 14.2078C13.5668 14.8485 12.6977 15.2085 11.7916 15.2085V3.12516ZM5.66333 5.66357C4.03801 7.28889 3.12492 9.49329 3.12492 11.7918H15.2083C15.2083 12.698 14.8483 13.567 14.2075 14.2078L5.66333 5.66357ZM3.12492 11.7918V18.2085H15.2083V11.7918H3.12492ZM3.12492 18.2085C3.12492 22.9963 7.00382 26.8752 11.7916 26.8752V14.7918C13.6773 14.7918 15.2083 16.3228 15.2083 18.2085H3.12492ZM11.7916 26.8752H18.2083V14.7918H11.7916V26.8752ZM18.2083 26.8752C20.5068 26.8752 22.7112 25.9621 24.3365 24.3368L15.7923 15.7926C16.4331 15.1518 17.3021 14.7918 18.2083 14.7918V26.8752ZM24.3365 24.3368C25.9618 22.7114 26.8749 20.507 26.8749 18.2085H14.7916C14.7916 17.3023 15.1516 16.4333 15.7923 15.7926L24.3365 24.3368ZM26.8749 18.2085V11.7918H14.7916V18.2085H26.8749ZM26.8749 11.7918C26.8749 7.00407 22.996 3.12516 18.2083 3.12516V15.2085C16.3226 15.2085 14.7916 13.6775 14.7916 11.7918H26.8749ZM18.2083 3.12516H11.7916V15.2085H18.2083V3.12516ZM18.828 16.3022C17.4674 16.3022 16.1625 15.7617 15.2004 14.7996L23.7446 6.25544C22.4407 4.95147 20.6721 4.21891 18.828 4.21891V16.3022ZM15.2004 14.7996C14.2383 13.8375 13.6978 12.5326 13.6978 11.172H25.7812C25.7812 9.32797 25.0486 7.55941 23.7446 6.25544L15.2004 14.7996ZM13.6978 11.172C13.6978 9.81143 14.2383 8.50654 15.2004 7.54443L23.7446 16.0886C25.0486 14.7847 25.7812 13.0161 25.7812 11.172H13.6978ZM15.2004 7.54443C16.1625 6.58233 17.4674 6.04183 18.828 6.04183V18.1252C20.6721 18.1252 22.4407 17.3926 23.7446 16.0886L15.2004 7.54443ZM18.828 6.04183C20.1887 6.04183 21.4935 6.58233 22.4556 7.54443L13.9114 16.0886C15.2154 17.3926 16.984 18.1252 18.828 18.1252V6.04183ZM22.4556 7.54443C23.4178 8.50654 23.9583 9.81143 23.9583 11.172H11.8749C11.8749 13.0161 12.6075 14.7847 13.9114 16.0886L22.4556 7.54443ZM23.9583 11.172C23.9583 12.5326 23.4178 13.8375 22.4556 14.7996L13.9114 6.25544C12.6075 7.55941 11.8749 9.32797 11.8749 11.172H23.9583ZM22.4556 14.7996C21.4935 15.7617 20.1887 16.3022 18.828 16.3022V4.21891C16.984 4.21891 15.2154 4.95147 13.9114 6.25544L22.4556 14.7996ZM14.9999 17.396C14.3645 17.396 13.7551 17.1436 13.3058 16.6943L21.85 8.15007C20.0333 6.33331 17.5692 5.31266 14.9999 5.31266V17.396ZM13.3058 16.6943C12.8565 16.245 12.6041 15.6356 12.6041 15.0002H24.6874C24.6874 12.4309 23.6668 9.96683 21.85 8.15007L13.3058 16.6943ZM12.6041 15.0002C12.6041 14.3647 12.8565 13.7554 13.3058 13.3061L21.85 21.8503C23.6668 20.0335 24.6874 17.5694 24.6874 15.0002H12.6041ZM13.3058 13.3061C13.7551 12.8567 14.3645 12.6043 14.9999 12.6043V24.6877C17.5692 24.6877 20.0333 23.667 21.85 21.8503L13.3058 13.3061ZM14.9999 12.6043C15.6353 12.6043 16.2447 12.8567 16.694 13.3061L8.14982 21.8503C9.96658 23.667 12.4306 24.6877 14.9999 24.6877V12.6043ZM16.694 13.3061C17.1433 13.7554 17.3958 14.3647 17.3958 15.0002H5.31242C5.31242 17.5694 6.33306 20.0335 8.14982 21.8503L16.694 13.3061ZM17.3958 15.0002C17.3958 15.6356 17.1433 16.245 16.694 16.6943L8.14982 8.15007C6.33306 9.96683 5.31242 12.4309 5.31242 15.0002H17.3958ZM16.694 16.6943C16.2447 17.1436 15.6353 17.396 14.9999 17.396V5.31266C12.4306 5.31266 9.96658 6.33331 8.14982 8.15007L16.694 16.6943ZM14.9999 6.771C12.8174 6.771 10.7243 7.63799 9.18102 9.18126L17.7252 17.7255C17.0024 18.4483 16.0221 18.8543 14.9999 18.8543V6.771ZM9.18102 9.18126C7.63775 10.7245 6.77075 12.8177 6.77075 15.0002H18.8541C18.8541 16.0223 18.448 17.0027 17.7252 17.7255L9.18102 9.18126ZM6.77075 15.0002C6.77075 17.1827 7.63775 19.2758 9.18102 20.8191L17.7252 12.2749C18.448 12.9977 18.8541 13.978 18.8541 15.0002H6.77075ZM9.18102 20.8191C10.7243 22.3623 12.8174 23.2293 14.9999 23.2293V11.146C16.0221 11.146 17.0024 11.5521 17.7252 12.2749L9.18102 20.8191ZM14.9999 23.2293C17.1824 23.2293 19.2755 22.3623 20.8188 20.8191L12.2746 12.2749C12.9974 11.5521 13.9777 11.146 14.9999 11.146V23.2293ZM20.8188 20.8191C22.3621 19.2758 23.2291 17.1827 23.2291 15.0002H11.1458C11.1458 13.978 11.5518 12.9977 12.2746 12.2749L20.8188 20.8191ZM23.2291 15.0002C23.2291 12.8177 22.3621 10.7245 20.8188 9.18126L12.2746 17.7255C11.5518 17.0027 11.1458 16.0223 11.1458 15.0002H23.2291ZM20.8188 9.18126C19.2755 7.63799 17.1824 6.771 14.9999 6.771V18.8543C13.9777 18.8543 12.9974 18.4483 12.2746 17.7255L20.8188 9.18126Z" fill="#6E7682" mask="url(#path-2-inside-1_4479_13642)"/>
</svg>
