<svg width="44" height="45" viewBox="0 0 44 45" fill="none" xmlns="http://www.w3.org/2000/svg">
    <rect y="0.5" width="44" height="44" rx="10" fill="#F0F0F5" />
    <path
        d="M22.0003 14.167C26.6027 14.167 30.3337 17.898 30.3337 22.5003C30.3337 27.1027 26.6027 30.8337 22.0003 30.8337C17.398 30.8337 13.667 27.1027 13.667 22.5003H15.3337C15.3337 26.1822 18.3184 29.167 22.0003 29.167C25.6822 29.167 28.667 26.1822 28.667 22.5003C28.667 18.8184 25.6822 15.8337 22.0003 15.8337C19.9471 15.8337 18.1107 16.7619 16.8878 18.2215L18.667 20.0003H13.667V15.0003L15.7058 17.0391C17.2337 15.2796 19.4871 14.167 22.0003 14.167ZM22.8337 18.3337L22.8335 22.1545L25.5358 24.8573L24.3573 26.0358L21.1668 22.8445L21.167 18.3337H22.8337Z"
        fill="#6E7682" />
</svg>