<svg width="30" height="30" viewBox="0 0 30 30" fill="none" xmlns="http://www.w3.org/2000/svg">
<circle cx="15" cy="15" r="15" fill="#F1F1F4"/>
<path d="M11.4844 12.4219V20.2344C11.4844 20.338 11.4432 20.4373 11.37 20.5106C11.2967 20.5838 11.1974 20.625 11.0938 20.625H9.14063C9.03703 20.625 8.93767 20.5838 8.86441 20.5106C8.79116 20.4373 8.75 20.338 8.75 20.2344V12.4219C8.75 12.3183 8.79116 12.2189 8.86441 12.1457C8.93767 12.0724 9.03703 12.0313 9.14063 12.0313H11.0938C11.1974 12.0313 11.2967 12.0724 11.37 12.1457C11.4432 12.2189 11.4844 12.3183 11.4844 12.4219ZM22.0312 15.4766C22.0443 14.6555 21.7765 13.8547 21.272 13.2068C20.7676 12.5589 20.057 12.1028 19.2578 11.9141C18.7141 11.797 18.1502 11.8118 17.6133 11.9572C17.0764 12.1026 16.5822 12.3745 16.1719 12.75V12.4219C16.1719 12.3183 16.1307 12.2189 16.0575 12.1457C15.9842 12.0724 15.8849 12.0313 15.7813 12.0313H13.8281C13.7245 12.0313 13.6252 12.0724 13.5519 12.1457C13.4787 12.2189 13.4375 12.3183 13.4375 12.4219V20.2344C13.4375 20.338 13.4787 20.4373 13.5519 20.5106C13.6252 20.5838 13.7245 20.625 13.8281 20.625H15.7813C15.8849 20.625 15.9842 20.5838 16.0575 20.5106C16.1307 20.4373 16.1719 20.338 16.1719 20.2344V15.8281C16.1625 15.448 16.2874 15.0768 16.5246 14.7796C16.7617 14.4824 17.096 14.2783 17.4688 14.2031C17.695 14.1641 17.9271 14.1754 18.1485 14.2362C18.3699 14.297 18.5752 14.4059 18.7497 14.5551C18.9243 14.7043 19.0638 14.8901 19.1584 15.0993C19.2529 15.3085 19.3002 15.536 19.2969 15.7656V20.2344C19.2969 20.338 19.338 20.4373 19.4113 20.5106C19.4845 20.5838 19.5839 20.625 19.6875 20.625H21.6406C21.7442 20.625 21.8436 20.5838 21.9168 20.5106C21.9901 20.4373 22.0312 20.338 22.0312 20.2344V15.4766ZM9.92188 7.34375C9.61284 7.34375 9.31075 7.43539 9.0538 7.60708C8.79685 7.77877 8.59658 8.0228 8.47831 8.30831C8.36005 8.59382 8.32911 8.90798 8.3894 9.21108C8.44969 9.51417 8.5985 9.79259 8.81702 10.0111C9.03554 10.2296 9.31395 10.3784 9.61705 10.4387C9.92014 10.499 10.2343 10.4681 10.5198 10.3498C10.8053 10.2316 11.0494 10.0313 11.221 9.77433C11.3927 9.51738 11.4844 9.21528 11.4844 8.90625C11.4844 8.49185 11.3198 8.09442 11.0267 7.8014C10.7337 7.50837 10.3363 7.34375 9.92188 7.34375Z" fill="#6E7682"/>
</svg>
