<svg width="158" height="214" viewBox="0 0 158 214" fill="none" xmlns="http://www.w3.org/2000/svg">
    <path
        d="M102.94 57.5407L124.093 75.3316C126.993 77.7748 132.417 79.0718 136.102 78.1148L158.136 72.6911C172.232 69.1894 179.368 77.4092 174.048 90.9285L164.947 113.865C163.431 117.705 164.158 123.643 166.632 126.96L179.757 144.816C190.102 158.92 184.43 168.588 167.088 166.365L142.862 163.257C138.447 162.684 132.749 165.2 130.165 168.738L115.8 188.443C105.511 202.535 94.5706 200.055 91.4179 182.863L87.4731 161.088C86.7348 157.018 82.9821 152.383 79.1422 150.868L56.1027 141.778C42.6293 136.4 41.5448 125.575 53.732 117.712L72.7672 105.449C75.9685 103.35 78.7874 98.5956 78.9585 94.7931L80.5154 67.1528C81.4372 52.2288 91.5076 47.9056 102.94 57.5407Z"
        fill="#5C6C8A" fill-opacity="0.08" />
</svg>