<svg width="23" height="23" viewBox="0 0 23 23" fill="none" xmlns="http://www.w3.org/2000/svg">
    <path
        d="M5.08333 9.6665C4.075 9.6665 3.25 10.4915 3.25 11.4998C3.25 12.5082 4.075 13.3332 5.08333 13.3332C6.09167 13.3332 6.91667 12.5082 6.91667 11.4998C6.91667 10.4915 6.09167 9.6665 5.08333 9.6665ZM17.9167 9.6665C16.9083 9.6665 16.0833 10.4915 16.0833 11.4998C16.0833 12.5082 16.9083 13.3332 17.9167 13.3332C18.925 13.3332 19.75 12.5082 19.75 11.4998C19.75 10.4915 18.925 9.6665 17.9167 9.6665ZM11.5 9.6665C10.4917 9.6665 9.66667 10.4915 9.66667 11.4998C9.66667 12.5082 10.4917 13.3332 11.5 13.3332C12.5083 13.3332 13.3333 12.5082 13.3333 11.4998C13.3333 10.4915 12.5083 9.6665 11.5 9.6665Z"
        fill="#75787A" />
</svg>