<svg width="101" height="100" viewBox="0 0 101 100" fill="none" xmlns="http://www.w3.org/2000/svg">
<g clip-path="url(#clip0_3835_11036)">
<rect x="0.5" width="100" height="100" rx="50" fill="#F7F7F8"/>
<g filter="url(#filter0_d_3835_11036)">
<rect x="18.5" y="33" width="44" height="71" rx="4" fill="white" fill-opacity="0.65" shape-rendering="crispEdges"/>
</g>
<g filter="url(#filter1_d_3835_11036)">
<rect x="40.5" y="44" width="45" height="57" rx="4" fill="white"/>
<rect x="44.5" y="51" width="35" height="5" rx="2.5" fill="#E6E8EA"/>
<rect x="44.5" y="59" width="35" height="5" rx="2.5" fill="#E6E8EA"/>
<rect x="44.5" y="67" width="23" height="5" rx="2.5" fill="#E6E8EA"/>
</g>
<g clip-path="url(#clip1_3835_11036)">
<path d="M22.8338 21.8052L23.713 23.4537L25.3615 24.333L23.713 25.2122L22.8338 26.8607L21.9545 25.2122L20.306 24.333L21.9545 23.4537L22.8338 21.8052ZM16.8338 23.8885L18.6115 27.2218L21.9449 28.9996L18.6115 30.7774L16.8338 34.1107L15.056 30.7774L11.7227 28.9996L15.056 27.2218L16.8338 23.8885ZM24.6115 31.8885L23.5005 29.8052L22.3893 31.8885L20.306 32.9996L22.3893 34.1107L23.5005 36.194L24.6115 34.1107L26.6949 32.9996L24.6115 31.8885Z" fill="#207DF7"/>
</g>
</g>
<defs>
<filter id="filter0_d_3835_11036" x="14.5" y="30" width="52" height="79" filterUnits="userSpaceOnUse" color-interpolation-filters="sRGB">
<feFlood flood-opacity="0" result="BackgroundImageFix"/>
<feColorMatrix in="SourceAlpha" type="matrix" values="0 0 0 0 0 0 0 0 0 0 0 0 0 0 0 0 0 0 127 0" result="hardAlpha"/>
<feOffset dy="1"/>
<feGaussianBlur stdDeviation="2"/>
<feComposite in2="hardAlpha" operator="out"/>
<feColorMatrix type="matrix" values="0 0 0 0 0.36 0 0 0 0 0.408 0 0 0 0 0.44 0 0 0 0.04 0"/>
<feBlend mode="normal" in2="BackgroundImageFix" result="effect1_dropShadow_3835_11036"/>
<feBlend mode="normal" in="SourceGraphic" in2="effect1_dropShadow_3835_11036" result="shape"/>
</filter>
<filter id="filter1_d_3835_11036" x="24.5" y="32" width="77" height="89" filterUnits="userSpaceOnUse" color-interpolation-filters="sRGB">
<feFlood flood-opacity="0" result="BackgroundImageFix"/>
<feColorMatrix in="SourceAlpha" type="matrix" values="0 0 0 0 0 0 0 0 0 0 0 0 0 0 0 0 0 0 127 0" result="hardAlpha"/>
<feOffset dy="4"/>
<feGaussianBlur stdDeviation="8"/>
<feComposite in2="hardAlpha" operator="out"/>
<feColorMatrix type="matrix" values="0 0 0 0 0.36 0 0 0 0 0.408 0 0 0 0 0.44 0 0 0 0.15 0"/>
<feBlend mode="normal" in2="BackgroundImageFix" result="effect1_dropShadow_3835_11036"/>
<feBlend mode="normal" in="SourceGraphic" in2="effect1_dropShadow_3835_11036" result="shape"/>
</filter>
<clipPath id="clip0_3835_11036">
<rect x="0.5" width="100" height="100" rx="50" fill="white"/>
</clipPath>
<clipPath id="clip1_3835_11036">
<rect width="16" height="16" fill="white" transform="translate(11.5 21)"/>
</clipPath>
</defs>
</svg>
