<svg width="59" height="58" viewBox="0 0 59 58" fill="none" xmlns="http://www.w3.org/2000/svg">
<path d="M29.527 36.1072C27.5105 36.1072 25.7029 34.7713 24.8102 32.6205L24.6724 32.2889L24.5416 31.9705L24.8333 31.7957L25.999 31.0915L26.3758 30.8647L26.5467 31.2772L26.6845 31.6087C27.2323 32.9277 28.3225 33.7481 29.527 33.7481C30.7314 33.7481 31.8217 32.9285 32.3698 31.6074L32.5089 31.2767L32.6786 30.8647L33.0554 31.091L34.2232 31.794L34.515 31.9687L34.3841 32.2889L34.2463 32.6205C33.3515 34.7708 31.5439 36.1072 29.527 36.1072ZM17.6976 36.1072C15.6811 36.1072 13.8735 34.7708 12.9804 32.6205L12.8413 32.2889L12.7104 31.9705L13.0018 31.7957L14.1692 31.0915L14.5464 30.8647L14.7165 31.2772L14.8543 31.6087C15.4016 32.9277 16.4909 33.7494 17.6967 33.7494C18.9025 33.7494 19.9932 32.9277 20.54 31.6074L20.6783 31.2758L20.8492 30.8647L21.2255 31.091L22.3917 31.7948L22.6834 31.9696L22.5526 32.2881L22.4148 32.6197C21.5195 34.7708 19.7141 36.1072 17.6976 36.1072Z" fill="#072D5F" fill-opacity="0.5"/>
<path d="M23.6125 43.0967C23.2675 43.0967 22.9303 43.1992 22.6434 43.3912C22.3566 43.5832 22.133 43.8561 22.0009 44.1754C21.8689 44.4947 21.8344 44.8461 21.9017 45.1851C21.969 45.5241 22.1351 45.8354 22.3791 46.0798C22.623 46.3242 22.9338 46.4907 23.2722 46.5581C23.6106 46.6255 23.9613 46.5909 24.2801 46.4586C24.5988 46.3264 24.8712 46.1024 25.0629 45.815C25.2546 45.5276 25.3569 45.1898 25.3569 44.8442C25.3569 44.3807 25.1731 43.9362 24.846 43.6085C24.5188 43.2808 24.0752 43.0967 23.6125 43.0967" fill="#072D5F" fill-opacity="0.5"/>
<path d="M58.4999 19.1131V20.38H53.2668V19.3879L56.2541 15.9676H53.3432V14.7007H58.4018V15.6928L55.415 19.1131H58.4999Z" fill="#072D5F" fill-opacity="0.5"/>
<path d="M55.7547 7.66536V9.86588L46.8794 9.86938V8.14592L51.9437 2.20446H47.0067V0.00393185L55.5859 0V1.72346L50.5225 7.66754L55.7547 7.66536Z" fill="#072D5F" fill-opacity="0.5"/>
<path d="M43.5855 57.9998H4.28553C3.7894 58.0033 3.29774 57.9057 2.84043 57.7129C2.38313 57.5202 1.96973 57.2362 1.62538 56.8784C1.26694 56.536 0.98219 56.1238 0.78863 55.6671C0.59507 55.2103 0.496791 54.7188 0.499834 54.2226V16.4546C0.496576 15.9585 0.594671 15.467 0.788086 15.0103C0.981501 14.5535 1.26615 14.1413 1.62451 13.7989C1.96875 13.4409 2.38211 13.1568 2.83943 12.9639C3.29676 12.771 3.78848 12.6734 4.28466 12.677H8.06992V9.84476C8.06237 9.22354 8.18164 8.60734 8.42041 8.03398C8.65919 7.46062 9.01242 6.9422 9.45844 6.51055C9.89262 6.06442 10.4128 5.71144 10.9875 5.47306C11.5621 5.23468 12.1792 5.11589 12.8011 5.12392H14.6933C15.315 5.11602 15.9318 5.23487 16.5062 5.47325C17.0806 5.71162 17.6006 6.06454 18.0346 6.51055C18.4811 6.94197 18.8349 7.46027 19.0742 8.03364C19.3135 8.60701 19.4333 9.22333 19.4261 9.84476V12.6774H28.4471V9.84476C28.4397 9.2234 28.5592 8.60709 28.7983 8.03371C29.0373 7.46033 29.391 6.94198 29.8374 6.51055C30.2713 6.06451 30.7912 5.71157 31.3655 5.47319C31.9399 5.23481 32.5566 5.11598 33.1783 5.12392H35.0704C35.6923 5.1161 36.3092 5.23499 36.8837 5.47336C37.4582 5.71173 37.9784 6.0646 38.4126 6.51055C38.8586 6.94224 39.2118 7.46067 39.4506 8.03402C39.6893 8.60737 39.8086 9.22355 39.8012 9.84476V12.6774H43.5855C44.5831 12.6896 45.5366 13.091 46.2434 13.7963C46.9501 14.5017 47.3544 15.4553 47.3704 16.4546V54.2222C47.3547 55.2216 46.9504 56.1754 46.2436 56.8807C45.5368 57.5861 44.5832 57.9875 43.5855 57.9994V57.9998ZM4.28553 24.0081V54.2226H43.5855V24.0081H4.28553ZM33.1783 8.90068C33.0528 8.89671 32.9278 8.91819 32.8108 8.96384C32.6938 9.00948 32.5873 9.07835 32.4975 9.16629C32.4095 9.25525 32.3406 9.36127 32.2949 9.47786C32.2492 9.59444 32.2278 9.71914 32.2319 9.84432V18.3432C32.2279 18.4685 32.2494 18.5932 32.295 18.7098C32.3407 18.8265 32.4096 18.9326 32.4975 19.0217C32.5873 19.1096 32.6938 19.1785 32.8108 19.2241C32.9278 19.2698 33.0528 19.2913 33.1783 19.2873H35.0704C35.1958 19.2926 35.3209 19.2718 35.4378 19.2263C35.5547 19.1808 35.661 19.1115 35.7499 19.0228C35.8388 18.9341 35.9084 18.8279 35.9543 18.711C36.0003 18.594 36.0215 18.4688 36.0168 18.3432V9.84476C36.0209 9.71958 35.9995 9.59488 35.9538 9.47829C35.9081 9.36171 35.8392 9.25569 35.7512 9.16673C35.6615 9.07868 35.555 9.00975 35.438 8.9641C35.321 8.91845 35.1959 8.89702 35.0704 8.90111L33.1783 8.90068ZM12.8011 8.90068C12.6756 8.89658 12.5506 8.91801 12.4336 8.96366C12.3166 9.00931 12.21 9.07824 12.1203 9.16629C12.0323 9.25525 11.9634 9.36127 11.9177 9.47786C11.872 9.59444 11.8506 9.71914 11.8548 9.84432V18.3432C11.85 18.4688 11.8713 18.594 11.9172 18.711C11.9631 18.8279 12.0327 18.9341 12.1216 19.0228C12.2105 19.1115 12.3168 19.1808 12.4337 19.2263C12.5506 19.2718 12.6757 19.2926 12.8011 19.2873H14.6933C14.8186 19.2925 14.9436 19.2716 15.0605 19.226C15.1773 19.1804 15.2835 19.1111 15.3724 19.0225C15.4613 18.9338 15.5309 18.8277 15.5769 18.7108C15.6228 18.5939 15.6442 18.4688 15.6396 18.3432V9.84476C15.6436 9.71955 15.6222 9.59483 15.5764 9.47824C15.5307 9.36165 15.4616 9.25565 15.3736 9.16673C15.284 9.07869 15.1775 9.00977 15.0606 8.96411C14.9436 8.91846 14.8187 8.89703 14.6933 8.90111L12.8011 8.90068Z" fill="#CDD1D5"/>
</svg>
