<svg width="45" height="45" viewBox="0 0 45 45" fill="none" xmlns="http://www.w3.org/2000/svg">
<circle cx="22.5" cy="22.5" r="22.5" fill="#FFEFE6"/>
<mask id="mask0_454_5874" style="mask-type:alpha" maskUnits="userSpaceOnUse" x="16" y="13" width="13" height="19">
<path d="M16.1667 14.979C16.1667 14.3232 16.6984 13.7915 17.3542 13.7915H24.0834L28.8334 18.5415V30.0207C28.8334 30.6765 28.3018 31.2082 27.6459 31.2082H17.3542C16.6984 31.2082 16.1667 30.6765 16.1667 30.0207V14.979Z" fill="black"/>
</mask>
<g mask="url(#mask0_454_5874)">
<path d="M16.1667 14.979C16.1667 14.3232 16.6984 13.7915 17.3542 13.7915H27.6459C28.3018 13.7915 28.8334 14.3232 28.8334 14.979V30.0207C28.8334 30.6765 28.3018 31.2082 27.6459 31.2082H17.3542C16.6984 31.2082 16.1667 30.6765 16.1667 30.0207V14.979Z" fill="#FB8441"/>
<path fill-rule="evenodd" clip-rule="evenodd" d="M17.3542 31.2085C16.6984 31.2085 16.1667 30.6768 16.1667 30.021V29.8299C16.1705 30.4825 16.7007 31.0104 17.3542 31.0104H27.6459C28.3017 31.0104 28.8334 30.4788 28.8334 29.8229V14.9724C28.8334 14.9747 28.8334 14.977 28.8334 14.9793V30.021C28.8334 30.6768 28.3018 31.2085 27.6459 31.2085H17.3542Z" fill="#FB8441"/>
<path fill-rule="evenodd" clip-rule="evenodd" d="M17.3542 13.7915C16.6984 13.7915 16.1667 14.3232 16.1667 14.979V15.1701C16.1705 14.5175 16.7007 13.9896 17.3542 13.9896H27.6459C28.3017 13.9896 28.8334 14.5212 28.8334 15.1771V30.0276C28.8334 30.0253 28.8334 30.023 28.8334 30.0207V14.979C28.8334 14.3232 28.3018 13.7915 27.6459 13.7915H17.3542Z" fill="#FED2B9"/>
<path d="M28.8333 22.5991L24.59 18.3559C24.403 18.1689 24.5355 17.8491 24.8 17.8491H28.8333V22.5991Z" fill="#FED2B9"/>
<path d="M24.0833 13.7915L28.8333 18.5415H25.2708C24.6149 18.5415 24.0833 18.0098 24.0833 17.354V13.7915Z" fill="#FDB891"/>
<path fill-rule="evenodd" clip-rule="evenodd" d="M25.6666 22.5H19.3333V23.2917H25.6666V22.5ZM25.6666 24.0833H19.3333V24.875H25.6666V24.0833ZM19.3333 25.6667H25.6666V26.4583H19.3333V25.6667ZM24.0833 27.25H19.3333V28.0417H24.0833V27.25Z" fill="white"/>
</g>
</svg>
