<svg width="299" height="138" viewBox="0 0 299 138" fill="none" xmlns="http://www.w3.org/2000/svg">
    <rect x="80.9517" y="0.452148" width="137.097" height="137.097" rx="68.5484" fill="#F7F7F8" />
    <g clip-path="url(#clip0_4989_12063)">
        <path
            d="M111.571 30.3477L112.776 32.6078L115.036 33.8132L112.776 35.0186L111.571 37.2787L110.365 35.0186L108.105 33.8132L110.365 32.6078L111.571 30.3477ZM103.345 33.2038L105.782 37.7737L110.352 40.211L105.782 42.6482L103.345 47.2181L100.908 42.6482L96.3376 40.211L100.908 37.7737L103.345 33.2038ZM114.008 44.1716L112.485 41.3154L110.961 44.1716L108.105 45.6949L110.961 47.2181L112.485 50.0743L114.008 47.2181L116.864 45.6949L114.008 44.1716Z"
            fill="white" />
    </g>
    <g filter="url(#filter0_d_4989_12063)">
        <rect x="67.2419" y="63.5166" width="164.516" height="43.871" rx="5.48387" fill="white" />
        <rect x="89.1774" y="76.54" width="120.645" height="6.85484" rx="3.42742" fill="#E9EBEC" />
        <rect x="67.6532" y="63.9279" width="163.694" height="43.0484" rx="5.07258" stroke="#E9EBEC"
            stroke-width="0.822581" />
    </g>
    <g filter="url(#filter1_d_4989_12063)">
        <rect x="42.5646" y="47.0645" width="213.871" height="43.871" rx="5.48387" fill="white" />
        <rect x="68.6129" y="60.0889" width="161.774" height="6.85484" rx="3.42742" fill="#E9EBEC" />
        <rect x="42.9759" y="47.4757" width="213.048" height="43.0484" rx="5.07258" stroke="#E9EBEC"
            stroke-width="0.822581" />
    </g>
    <g filter="url(#filter2_d_4989_12063)">
        <rect x="22" y="30.6133" width="255" height="43.871" rx="5.48387" fill="white" />
        <rect x="48.0483" y="49.1211" width="202.903" height="6.85484" rx="3.42742" fill="#E9EBEC" />
        <rect x="22.4113" y="31.0246" width="254.177" height="43.0484" rx="5.07258" stroke="#E9EBEC"
            stroke-width="0.822581" />
    </g>
    <defs>
        <filter id="filter0_d_4989_12063" x="45.3065" y="47.065" width="208.387" height="87.7421"
            filterUnits="userSpaceOnUse" color-interpolation-filters="sRGB">
            <feFlood flood-opacity="0" result="BackgroundImageFix" />
            <feColorMatrix in="SourceAlpha" type="matrix" values="0 0 0 0 0 0 0 0 0 0 0 0 0 0 0 0 0 0 127 0"
                result="hardAlpha" />
            <feOffset dy="5.48387" />
            <feGaussianBlur stdDeviation="10.9677" />
            <feComposite in2="hardAlpha" operator="out" />
            <feColorMatrix type="matrix" values="0 0 0 0 0.36 0 0 0 0 0.408 0 0 0 0 0.44 0 0 0 0.15 0" />
            <feBlend mode="normal" in2="BackgroundImageFix" result="effect1_dropShadow_4989_12063" />
            <feBlend mode="normal" in="SourceGraphic" in2="effect1_dropShadow_4989_12063" result="shape" />
        </filter>
        <filter id="filter1_d_4989_12063" x="20.6291" y="30.6128" width="257.742" height="87.7421"
            filterUnits="userSpaceOnUse" color-interpolation-filters="sRGB">
            <feFlood flood-opacity="0" result="BackgroundImageFix" />
            <feColorMatrix in="SourceAlpha" type="matrix" values="0 0 0 0 0 0 0 0 0 0 0 0 0 0 0 0 0 0 127 0"
                result="hardAlpha" />
            <feOffset dy="5.48387" />
            <feGaussianBlur stdDeviation="10.9677" />
            <feComposite in2="hardAlpha" operator="out" />
            <feColorMatrix type="matrix" values="0 0 0 0 0.36 0 0 0 0 0.408 0 0 0 0 0.44 0 0 0 0.15 0" />
            <feBlend mode="normal" in2="BackgroundImageFix" result="effect1_dropShadow_4989_12063" />
            <feBlend mode="normal" in="SourceGraphic" in2="effect1_dropShadow_4989_12063" result="shape" />
        </filter>
        <filter id="filter2_d_4989_12063" x="0.0645161" y="14.1617" width="298.871" height="87.7421"
            filterUnits="userSpaceOnUse" color-interpolation-filters="sRGB">
            <feFlood flood-opacity="0" result="BackgroundImageFix" />
            <feColorMatrix in="SourceAlpha" type="matrix" values="0 0 0 0 0 0 0 0 0 0 0 0 0 0 0 0 0 0 127 0"
                result="hardAlpha" />
            <feOffset dy="5.48387" />
            <feGaussianBlur stdDeviation="10.9677" />
            <feComposite in2="hardAlpha" operator="out" />
            <feColorMatrix type="matrix" values="0 0 0 0 0.36 0 0 0 0 0.408 0 0 0 0 0.44 0 0 0 0.15 0" />
            <feBlend mode="normal" in2="BackgroundImageFix" result="effect1_dropShadow_4989_12063" />
            <feBlend mode="normal" in="SourceGraphic" in2="effect1_dropShadow_4989_12063" result="shape" />
        </filter>
        <clipPath id="clip0_4989_12063">
            <rect width="21.9355" height="21.9355" fill="white" transform="translate(96.0323 29.2432)" />
        </clipPath>
    </defs>
</svg>