<svg width="40" height="40" viewBox="0 0 40 40" fill="none" xmlns="http://www.w3.org/2000/svg">
<circle cx="20" cy="20" r="20" fill="#F7F7F8"/>
<g filter="url(#filter0_ddd_1086_20916)">
<path d="M12 11.7336C12 11.0523 12.5523 10.5 13.2336 10.5L21.25 10.5C21.5977 10.5 21.9292 10.6467 22.163 10.904L27.6794 16.9753C27.8857 17.2023 28 17.4981 28 17.8048V28.2664C28 28.9477 27.4477 29.5 26.7664 29.5H13.2336C12.5523 29.5 12 28.9477 12 28.2664V11.7336Z" fill="url(#paint0_linear_1086_20916)"/>
<path d="M12.2056 11.7336C12.2056 11.1658 12.6658 10.7056 13.2336 10.7056H21.25C21.5398 10.7056 21.816 10.8278 22.0108 11.0423L27.5273 17.1136C27.6992 17.3028 27.7944 17.5492 27.7944 17.8048V28.2664C27.7944 28.8342 27.3342 29.2944 26.7664 29.2944H13.2336C12.6658 29.2944 12.2056 28.8342 12.2056 28.2664V11.7336Z" stroke="url(#paint1_linear_1086_20916)" stroke-width="0.411187"/>
</g>
<g filter="url(#filter1_ddd_1086_20916)">
<path d="M24.7341 13.7132L21.4688 10.5V16.0946C21.4688 16.7758 22.021 17.3281 22.7023 17.3281H27.9994L24.7341 13.7132Z" fill="url(#paint2_linear_1086_20916)"/>
<path d="M27.768 17.2253H22.7023C22.0778 17.2253 21.5715 16.7191 21.5715 16.0946V10.7454L24.6598 13.7844L27.768 17.2253Z" stroke="url(#paint3_linear_1086_20916)" stroke-width="0.205593"/>
</g>
<rect x="15.2637" y="22.6719" width="9.14286" height="1.1875" rx="0.59375" fill="#C9C9CC"/>
<rect x="17.2246" y="20.2969" width="5.22449" height="1.1875" rx="0.59375" fill="#1751D0"/>
<defs>
<filter id="filter0_ddd_1086_20916" x="9.53288" y="9.26644" width="20.9342" height="23.9342" filterUnits="userSpaceOnUse" color-interpolation-filters="sRGB">
<feFlood flood-opacity="0" result="BackgroundImageFix"/>
<feColorMatrix in="SourceAlpha" type="matrix" values="0 0 0 0 0 0 0 0 0 0 0 0 0 0 0 0 0 0 127 0" result="hardAlpha"/>
<feOffset/>
<feComposite in2="hardAlpha" operator="out"/>
<feColorMatrix type="matrix" values="0 0 0 0 0 0 0 0 0 0 0 0 0 0 0 0 0 0 0.04 0"/>
<feBlend mode="normal" in2="BackgroundImageFix" result="effect1_dropShadow_1086_20916"/>
<feColorMatrix in="SourceAlpha" type="matrix" values="0 0 0 0 0 0 0 0 0 0 0 0 0 0 0 0 0 0 127 0" result="hardAlpha"/>
<feOffset dy="0.411187"/>
<feGaussianBlur stdDeviation="0.61678"/>
<feComposite in2="hardAlpha" operator="out"/>
<feColorMatrix type="matrix" values="0 0 0 0 0 0 0 0 0 0 0 0 0 0 0 0 0 0 0.07 0"/>
<feBlend mode="normal" in2="effect1_dropShadow_1086_20916" result="effect2_dropShadow_1086_20916"/>
<feColorMatrix in="SourceAlpha" type="matrix" values="0 0 0 0 0 0 0 0 0 0 0 0 0 0 0 0 0 0 127 0" result="hardAlpha"/>
<feOffset dy="1.23356"/>
<feGaussianBlur stdDeviation="1.23356"/>
<feComposite in2="hardAlpha" operator="out"/>
<feColorMatrix type="matrix" values="0 0 0 0 0 0 0 0 0 0 0 0 0 0 0 0 0 0 0.05 0"/>
<feBlend mode="normal" in2="effect2_dropShadow_1086_20916" result="effect3_dropShadow_1086_20916"/>
<feBlend mode="normal" in="SourceGraphic" in2="effect3_dropShadow_1086_20916" result="shape"/>
</filter>
<filter id="filter1_ddd_1086_20916" x="20.6464" y="10.1916" width="8.176" height="8.78126" filterUnits="userSpaceOnUse" color-interpolation-filters="sRGB">
<feFlood flood-opacity="0" result="BackgroundImageFix"/>
<feColorMatrix in="SourceAlpha" type="matrix" values="0 0 0 0 0 0 0 0 0 0 0 0 0 0 0 0 0 0 127 0" result="hardAlpha"/>
<feOffset/>
<feComposite in2="hardAlpha" operator="out"/>
<feColorMatrix type="matrix" values="0 0 0 0 0 0 0 0 0 0 0 0 0 0 0 0 0 0 0.04 0"/>
<feBlend mode="normal" in2="BackgroundImageFix" result="effect1_dropShadow_1086_20916"/>
<feColorMatrix in="SourceAlpha" type="matrix" values="0 0 0 0 0 0 0 0 0 0 0 0 0 0 0 0 0 0 127 0" result="hardAlpha"/>
<feOffset dy="0.822373"/>
<feGaussianBlur stdDeviation="0.411187"/>
<feComposite in2="hardAlpha" operator="out"/>
<feColorMatrix type="matrix" values="0 0 0 0 0 0 0 0 0 0 0 0 0 0 0 0 0 0 0.13 0"/>
<feBlend mode="normal" in2="effect1_dropShadow_1086_20916" result="effect2_dropShadow_1086_20916"/>
<feColorMatrix in="SourceAlpha" type="matrix" values="0 0 0 0 0 0 0 0 0 0 0 0 0 0 0 0 0 0 127 0" result="hardAlpha"/>
<feOffset dy="0.102797"/>
<feGaussianBlur stdDeviation="0.205593"/>
<feComposite in2="hardAlpha" operator="out"/>
<feColorMatrix type="matrix" values="0 0 0 0 0 0 0 0 0 0 0 0 0 0 0 0 0 0 0.13 0"/>
<feBlend mode="normal" in2="effect2_dropShadow_1086_20916" result="effect3_dropShadow_1086_20916"/>
<feBlend mode="normal" in="SourceGraphic" in2="effect3_dropShadow_1086_20916" result="shape"/>
</filter>
<linearGradient id="paint0_linear_1086_20916" x1="20" y1="10.5" x2="20" y2="29.5" gradientUnits="userSpaceOnUse">
<stop stop-color="white"/>
<stop offset="1" stop-color="#EFEFEF"/>
</linearGradient>
<linearGradient id="paint1_linear_1086_20916" x1="19.8367" y1="29.5" x2="19.8367" y2="11.3906" gradientUnits="userSpaceOnUse">
<stop stop-color="white"/>
<stop offset="1" stop-color="white" stop-opacity="0"/>
</linearGradient>
<linearGradient id="paint2_linear_1086_20916" x1="21.0334" y1="17.3281" x2="24.2887" y2="17.7986" gradientUnits="userSpaceOnUse">
<stop stop-color="#FAFAFA"/>
<stop offset="1" stop-color="#EDEDED"/>
</linearGradient>
<linearGradient id="paint3_linear_1086_20916" x1="25.3871" y1="21.3447" x2="25.0164" y2="14.1116" gradientUnits="userSpaceOnUse">
<stop stop-color="white"/>
<stop offset="1" stop-color="white" stop-opacity="0"/>
</linearGradient>
</defs>
</svg>
