<svg width="14" height="14" viewBox="0 0 14 14" fill="none" xmlns="http://www.w3.org/2000/svg">
<path d="M7 1.16602C5.47167 1.16602 4.22917 2.40852 4.22917 3.93685C4.22917 5.43602 5.40167 6.64935 6.93 6.70185C6.97667 6.69602 7.02333 6.69602 7.05833 6.70185C7.07 6.70185 7.07583 6.70185 7.0875 6.70185C7.09333 6.70185 7.09333 6.70185 7.09917 6.70185C8.5925 6.64935 9.765 5.43602 9.77083 3.93685C9.77083 2.40852 8.52833 1.16602 7 1.16602Z" fill="#6E7682"/>
<path d="M9.96333 8.2532C8.33583 7.1682 5.68167 7.1682 4.0425 8.2532C3.30167 8.74904 2.89333 9.41987 2.89333 10.1374C2.89333 10.8549 3.30167 11.5199 4.03667 12.0099C4.85333 12.5582 5.92667 12.8324 7 12.8324C8.07333 12.8324 9.14667 12.5582 9.96333 12.0099C10.6983 11.514 11.1067 10.849 11.1067 10.1257C11.1008 9.4082 10.6983 8.7432 9.96333 8.2532Z" fill="#6E7682"/>
</svg>
