<svg width="30" height="30" viewBox="0 0 30 30" fill="none" xmlns="http://www.w3.org/2000/svg">
<path d="M15 27.5C8.09644 27.5 2.5 21.9035 2.5 15C2.5 8.09644 8.09644 2.5 15 2.5C21.9035 2.5 27.5 8.09644 27.5 15C27.5 21.9035 21.9035 27.5 15 27.5ZM13.75 18.75V21.25H16.25V18.75H13.75ZM16.25 16.6939C18.0571 16.156 19.375 14.4819 19.375 12.5C19.375 10.0838 17.4163 8.125 15 8.125C12.8775 8.125 11.108 9.63649 10.7091 11.6418L13.161 12.1322C13.332 11.2728 14.0904 10.625 15 10.625C16.0355 10.625 16.875 11.4645 16.875 12.5C16.875 13.5355 16.0355 14.375 15 14.375C14.3096 14.375 13.75 14.9346 13.75 15.625V17.5H16.25V16.6939Z" fill="#6E7682"/>
</svg>
