<svg width="14" height="15" viewBox="0 0 14 15" fill="none" xmlns="http://www.w3.org/2000/svg">
    <path
        d="M6.99935 13.3337C3.77769 13.3337 1.16602 10.722 1.16602 7.50033C1.16602 4.27866 3.77769 1.66699 6.99935 1.66699C10.221 1.66699 12.8327 4.27866 12.8327 7.50033C12.8327 10.722 10.221 13.3337 6.99935 13.3337ZM6.41602 9.25033V10.417H7.58268V9.25033H6.41602ZM7.58268 8.2908C8.42601 8.03979 9.04102 7.25853 9.04102 6.33366C9.04102 5.20608 8.12693 4.29199 6.99935 4.29199C6.00885 4.29199 5.18307 4.99735 4.99695 5.93318L6.14115 6.16202C6.22095 5.76096 6.57486 5.45866 6.99935 5.45866C7.48258 5.45866 7.87435 5.85041 7.87435 6.33366C7.87435 6.81689 7.48258 7.20866 6.99935 7.20866C6.67717 7.20866 6.41602 7.46982 6.41602 7.79199V8.66699H7.58268V8.2908Z"
        fill="#6E7682" />
</svg>