<svg width="14" height="15" viewBox="0 0 14 15" fill="none" xmlns="http://www.w3.org/2000/svg">
<path d="M9.20508 1.6665H4.79508C2.59008 1.6665 2.04175 2.25567 2.04175 4.6065V11.1748C2.04175 12.7265 2.89341 13.094 3.92591 11.9857L3.93175 11.9798C4.41008 11.4723 5.13925 11.5132 5.55342 12.0673L6.14258 12.8548C6.61508 13.479 7.37925 13.479 7.85175 12.8548L8.44092 12.0673C8.86092 11.5073 9.59008 11.4665 10.0684 11.9798C11.1067 13.0882 11.9526 12.7207 11.9526 11.169V4.6065C11.9584 2.25567 11.4101 1.6665 9.20508 1.6665ZM8.75008 7.354H5.25008C5.01091 7.354 4.81258 7.15567 4.81258 6.9165C4.81258 6.67734 5.01091 6.479 5.25008 6.479H8.75008C8.98925 6.479 9.18758 6.67734 9.18758 6.9165C9.18758 7.15567 8.98925 7.354 8.75008 7.354ZM9.33342 5.02067H4.66675C4.42758 5.02067 4.22925 4.82234 4.22925 4.58317C4.22925 4.344 4.42758 4.14567 4.66675 4.14567H9.33342C9.57258 4.14567 9.77092 4.344 9.77092 4.58317C9.77092 4.82234 9.57258 5.02067 9.33342 5.02067Z" fill="#969CA6"/>
</svg>
