<svg width="45" height="45" viewBox="0 0 45 45" fill="none" xmlns="http://www.w3.org/2000/svg">
<circle cx="22.5" cy="22.5" r="22.5" fill="#FFEFE6"/>
<path d="M23.7271 28.9602C23.5212 29.0473 23.2996 29.1264 23.0621 29.2056L21.8112 29.6173C18.6683 30.6306 17.0137 29.7835 15.9925 26.6406L14.9792 23.5135C13.9658 20.3706 14.805 18.7081 17.9479 17.6948L19.1671 17.291C19.0167 17.671 18.89 18.1064 18.7712 18.5973L17.9954 21.9143C17.1246 25.6431 18.3992 27.7014 22.1279 28.5881L23.4579 28.9048C23.545 28.9285 23.64 28.9443 23.7271 28.9602Z" fill="#FB8441"/>
<path d="M26.5929 15.5414L25.2708 15.2326C22.6267 14.6072 21.0512 15.1218 20.125 17.0376C19.8875 17.5206 19.6975 18.1064 19.5392 18.7793L18.7633 22.0964C17.9875 25.4056 19.0088 27.0364 22.31 27.8201L23.64 28.1368C24.0992 28.2476 24.5267 28.3189 24.9225 28.3506C27.3925 28.5881 28.7067 27.4322 29.3717 24.5743L30.1475 21.2651C30.9233 17.956 29.91 16.3172 26.5929 15.5414Z" fill="#FB8441"/>
</svg>
