<svg width="21" height="21" viewBox="0 0 21 21" fill="none" xmlns="http://www.w3.org/2000/svg">
<path d="M6.33317 5.49984V2.99984C6.33317 2.5396 6.70627 2.1665 7.1665 2.1665H17.1665C17.6267 2.1665 17.9998 2.5396 17.9998 2.99984V14.6665C17.9998 15.1268 17.6267 15.4998 17.1665 15.4998H14.6665V17.9991C14.6665 18.4598 14.2916 18.8332 13.8275 18.8332H3.83888C3.37549 18.8332 3 18.4627 3 17.9991L3.00217 6.3339C3.00225 5.87326 3.3772 5.49984 3.84118 5.49984H6.33317ZM4.66868 7.1665L4.66682 17.1665H12.9998V7.1665H4.66868ZM7.99983 5.49984H14.6665V13.8332H16.3332V3.83317H7.99983V5.49984ZM6.33333 9.6665H11.3333V11.3332H6.33333V9.6665ZM6.33333 12.9998H11.3333V14.6665H6.33333V12.9998Z" fill="#969CA6"/>
</svg>
