<svg width="100" height="100" viewBox="0 0 100 100" fill="none" xmlns="http://www.w3.org/2000/svg">
<g clip-path="url(#clip0_4376_11438)">
<rect width="100" height="100" rx="50" fill="#F7F7F8"/>
<g filter="url(#filter0_d_4376_11438)">
<rect x="18" y="33" width="44" height="71" rx="4" fill="white" fill-opacity="0.65" shape-rendering="crispEdges"/>
</g>
<g filter="url(#filter1_d_4376_11438)">
<rect x="40" y="44" width="45" height="57" rx="4" fill="white"/>
<rect x="44" y="66" width="35" height="5" rx="2.5" fill="#EAEBEB"/>
<rect x="44" y="74" width="23" height="5" rx="2.5" fill="#EAEBEB"/>
<rect x="44" y="51" width="13" height="11" rx="1" fill="#EFF0F0"/>
</g>
<g clip-path="url(#clip1_4376_11438)">
<path d="M22.3338 21.8057L23.213 23.4542L24.8615 24.3334L23.213 25.2127L22.3338 26.8612L21.4545 25.2127L19.806 24.3334L21.4545 23.4542L22.3338 21.8057ZM16.3338 23.889L18.1115 27.2223L21.4449 29.0001L18.1115 30.7779L16.3338 34.1112L14.556 30.7779L11.2227 29.0001L14.556 27.2223L16.3338 23.889ZM24.1115 31.889L23.0005 29.8057L21.8893 31.889L19.806 33.0001L21.8893 34.1112L23.0005 36.1945L24.1115 34.1112L26.1949 33.0001L24.1115 31.889Z" fill="white"/>
</g>
</g>
<defs>
<filter id="filter0_d_4376_11438" x="14" y="30" width="52" height="79" filterUnits="userSpaceOnUse" color-interpolation-filters="sRGB">
<feFlood flood-opacity="0" result="BackgroundImageFix"/>
<feColorMatrix in="SourceAlpha" type="matrix" values="0 0 0 0 0 0 0 0 0 0 0 0 0 0 0 0 0 0 127 0" result="hardAlpha"/>
<feOffset dy="1"/>
<feGaussianBlur stdDeviation="2"/>
<feComposite in2="hardAlpha" operator="out"/>
<feColorMatrix type="matrix" values="0 0 0 0 0.36 0 0 0 0 0.408 0 0 0 0 0.44 0 0 0 0.04 0"/>
<feBlend mode="normal" in2="BackgroundImageFix" result="effect1_dropShadow_4376_11438"/>
<feBlend mode="normal" in="SourceGraphic" in2="effect1_dropShadow_4376_11438" result="shape"/>
</filter>
<filter id="filter1_d_4376_11438" x="24" y="32" width="77" height="89" filterUnits="userSpaceOnUse" color-interpolation-filters="sRGB">
<feFlood flood-opacity="0" result="BackgroundImageFix"/>
<feColorMatrix in="SourceAlpha" type="matrix" values="0 0 0 0 0 0 0 0 0 0 0 0 0 0 0 0 0 0 127 0" result="hardAlpha"/>
<feOffset dy="4"/>
<feGaussianBlur stdDeviation="8"/>
<feComposite in2="hardAlpha" operator="out"/>
<feColorMatrix type="matrix" values="0 0 0 0 0.36 0 0 0 0 0.408 0 0 0 0 0.44 0 0 0 0.15 0"/>
<feBlend mode="normal" in2="BackgroundImageFix" result="effect1_dropShadow_4376_11438"/>
<feBlend mode="normal" in="SourceGraphic" in2="effect1_dropShadow_4376_11438" result="shape"/>
</filter>
<clipPath id="clip0_4376_11438">
<rect width="100" height="100" rx="50" fill="white"/>
</clipPath>
<clipPath id="clip1_4376_11438">
<rect width="16" height="16" fill="white" transform="translate(11 21)"/>
</clipPath>
</defs>
</svg>
