<svg width="16" height="17" viewBox="0 0 16 17" fill="none" xmlns="http://www.w3.org/2000/svg">
<path d="M7.99997 3.6001C4.8133 3.6001 2.21997 6.19343 2.21997 9.3801C2.21997 12.5668 4.8133 15.1668 7.99997 15.1668C11.1866 15.1668 13.78 12.5734 13.78 9.38676C13.78 6.2001 11.1866 3.6001 7.99997 3.6001ZM8.49997 9.16676C8.49997 9.4401 8.2733 9.66676 7.99997 9.66676C7.72664 9.66676 7.49997 9.4401 7.49997 9.16676V5.83343C7.49997 5.5601 7.72664 5.33343 7.99997 5.33343C8.2733 5.33343 8.49997 5.5601 8.49997 5.83343V9.16676Z" fill="#207DF7"/>
<path d="M9.9266 2.80016H6.07326C5.80659 2.80016 5.59326 2.58683 5.59326 2.32016C5.59326 2.0535 5.80659 1.8335 6.07326 1.8335H9.9266C10.1933 1.8335 10.4066 2.04683 10.4066 2.3135C10.4066 2.58016 10.1933 2.80016 9.9266 2.80016Z" fill="#207DF7"/>
</svg>
