<svg width="30" height="30" viewBox="0 0 30 30" fill="none" xmlns="http://www.w3.org/2000/svg">
<circle cx="15" cy="15" r="15" fill="#F1F1F4"/>
<path fill-rule="evenodd" clip-rule="evenodd" d="M22.2918 10.953C21.9149 11.4555 21.4594 11.8938 20.9428 12.251C20.9428 12.3822 20.9428 12.5135 20.9428 12.652C20.9449 13.8319 20.7122 15.0005 20.2583 16.0897C19.8043 17.1788 19.1383 18.1668 18.2988 18.996C17.4594 19.8252 16.4634 20.4792 15.3688 20.9198C14.2742 21.3604 13.1029 21.5789 11.923 21.5624C10.5452 21.567 9.18507 21.2526 7.94909 20.6437C7.91648 20.6294 7.88875 20.606 7.86932 20.5762C7.84988 20.5464 7.83959 20.5115 7.83972 20.476V20.3957C7.83972 20.3455 7.85969 20.2972 7.89524 20.2617C7.9308 20.2261 7.97902 20.2062 8.0293 20.2062C9.38366 20.1615 10.6897 19.6922 11.7626 18.8645C11.1619 18.8524 10.5769 18.6707 10.075 18.3405C9.57317 18.0102 9.1749 17.5447 8.92617 16.9978C8.91357 16.9679 8.90888 16.9351 8.91257 16.9028C8.91626 16.8705 8.9282 16.8397 8.94724 16.8133C8.96628 16.787 8.99178 16.7659 9.02129 16.7523C9.05081 16.7386 9.08334 16.7328 9.11576 16.7353C9.48833 16.7728 9.86462 16.7381 10.2241 16.6332C9.56454 16.4964 8.9655 16.1536 8.51337 15.6543C8.06124 15.155 7.77939 14.525 7.70847 13.8551C7.70592 13.8227 7.71176 13.7902 7.72542 13.7607C7.73908 13.7311 7.76011 13.7056 7.78647 13.6866C7.81283 13.6676 7.84365 13.6556 7.87596 13.6519C7.90827 13.6482 7.94099 13.6529 7.97097 13.6655C8.33413 13.8257 8.72615 13.9101 9.12305 13.9135C8.54644 13.5352 8.11136 12.9766 7.88578 12.3249C7.6602 11.6732 7.65682 10.9652 7.87617 10.3114C7.89906 10.2471 7.93824 10.19 7.98986 10.1454C8.04148 10.1009 8.10378 10.0705 8.17067 10.0573C8.23755 10.0441 8.30673 10.0484 8.37142 10.07C8.43611 10.0915 8.4941 10.1294 8.53972 10.1801C10.1399 11.8823 12.3385 12.8967 14.672 13.0093C14.6122 12.7709 14.5828 12.5259 14.5845 12.2801C14.5952 11.65 14.7929 11.0373 15.1525 10.5198C15.5121 10.0022 16.0174 9.60329 16.6043 9.37355C17.1911 9.14382 17.833 9.09368 18.4484 9.2295C19.0638 9.36532 19.6249 9.68097 20.0605 10.1364C20.6679 10.0207 21.255 9.81683 21.8033 9.53116C21.8229 9.51888 21.8457 9.51236 21.8689 9.51236C21.8921 9.51236 21.9148 9.51888 21.9345 9.53116C21.9468 9.55085 21.9533 9.57358 21.9533 9.59679C21.9533 9.61999 21.9468 9.64273 21.9345 9.66241C21.6689 10.2702 21.2203 10.7801 20.6512 11.1207C21.1496 11.063 21.6392 10.9455 22.1095 10.7707C22.1289 10.7576 22.1517 10.7505 22.1751 10.7505C22.1985 10.7505 22.2214 10.7576 22.2408 10.7707C22.2571 10.7782 22.2717 10.7892 22.2834 10.8029C22.2951 10.8166 22.3037 10.8327 22.3086 10.85C22.3134 10.8674 22.3144 10.8856 22.3115 10.9034C22.3087 10.9212 22.3019 10.9381 22.2918 10.953Z" fill="#6E7682"/>
</svg>
