<svg width="40" height="40" viewBox="0 0 40 40" fill="none" xmlns="http://www.w3.org/2000/svg">
<circle cx="20" cy="20" r="20" fill="#FFEFE6"/>
<path d="M23.3332 18.1332L26.8087 15.7003C26.9595 15.5947 27.1674 15.6314 27.2729 15.7822C27.3121 15.8383 27.3332 15.905 27.3332 15.9734V24.0263C27.3332 24.2104 27.1839 24.3596 26.9998 24.3596C26.9314 24.3596 26.8647 24.3386 26.8087 24.2994L23.3332 21.8665V24.6665C23.3332 25.0347 23.0347 25.3332 22.6665 25.3332H13.3332C12.965 25.3332 12.6665 25.0347 12.6665 24.6665V15.3332C12.6665 14.965 12.965 14.6665 13.3332 14.6665H22.6665C23.0347 14.6665 23.3332 14.965 23.3332 15.3332V18.1332ZM15.3332 17.3332V18.6665H16.6665V17.3332H15.3332Z" fill="#FB8441"/>
</svg>
